<svg viewBox="0 0 153.993 136.51" height="515.944" width="582.019" xmlns:xlink="http://www.w3.org/1999/xlink" xmlns="http://www.w3.org/2000/svg"><defs><linearGradient id="d"><stop offset="0" stop-color="#c5d2d2"/><stop offset=".103" stop-color="#c5d2d2"/><stop offset=".824" stop-color="#f3f5f5"/><stop offset="1" stop-color="#f3f5f5"/></linearGradient><linearGradient id="b"><stop offset="0" stop-color="#047b16"/><stop offset="1" stop-color="#2fac43"/></linearGradient><linearGradient xlink:href="#b" id="a" gradientUnits="userSpaceOnUse" gradientTransform="matrix(1.18548 0 0 1.5174 -577.61 2427.066)" x1="486.176" y1="-1473.149" x2="486.176" y2="-1590.079"/><linearGradient y2="156.783" x2="-178.729" y1="-64.932" x1="-178.729" gradientUnits="userSpaceOnUse" id="c" xlink:href="#d"/><linearGradient id="f" x1="187.5" x2="132.27" y1="718.77" y2="512.65" gradientUnits="userSpaceOnUse"><stop stop-color="#fff" offset="0"/><stop stop-color="#fff" stop-opacity="0" offset="1"/></linearGradient><linearGradient id="l"><stop offset="0" stop-color="#6f8181"/><stop offset="1" stop-color="#b0b8b8"/></linearGradient><linearGradient id="g"><stop offset="0" stop-color="#334545"/><stop offset="1" stop-color="#172525"/></linearGradient><linearGradient id="k"><stop offset="0" stop-color="#cfd5d5"/><stop offset="1" stop-color="#fcfcfc"/></linearGradient><linearGradient id="i"><stop offset="0"/><stop offset="1" stop-opacity="0"/></linearGradient><linearGradient id="j"><stop offset="0" stop-color="#6c5548"/><stop offset="1" stop-color="#bb9d71"/></linearGradient><linearGradient id="h"><stop offset="0" stop-color="#ffa92d"/><stop offset="1" stop-color="#cd7223"/></linearGradient><linearGradient id="m" y1="525.28" x1="408.65" y2="533.28" x2="416.65" gradientUnits="userSpaceOnUse" gradientTransform="translate(-.081 -.48)"><stop stop-opacity=".065"/><stop offset="1" stop-opacity="0"/></linearGradient><linearGradient id="n"><stop offset="0" stop-color="#343434"/><stop offset="1" stop-color="#4d4d4d"/></linearGradient><linearGradient id="o"><stop offset="0" stop-color="#5596ea"/><stop offset="1" stop-color="#5596ea" stop-opacity="0"/></linearGradient><clipPath id="e"><path d="M-29.377 351.44h326.19v326.19h-326.19z"/></clipPath></defs><path d="M21.475 119.459c-1.002 0-2.059-.243-2.88-.717l-17.354-10.02c-1.5-.865-1.663-2.187-.365-2.937l12.841-7.414-.73-.42c-1.499-.866-1.663-2.189-.365-2.938l10.635-6.14c.588-.34 1.379-.506 2.208-.506 1.001 0 2.058.243 2.88.717l3.455 1.995 10.834 6.256 6.52 3.764c1.5.865 1.665 2.187.365 2.937l-25.836 14.917c-.588.34-1.379.506-2.208.506M97.81 136.51c-.997 0-2.048-.241-2.864-.713l-3.437-1.984-10.775-6.22-6.485-3.745c-1.49-.86-1.654-2.176-.363-2.92l6.546-3.78-7.083-4.09c-1.299-.75-1.134-2.071.364-2.937l6.521-3.764 10.834-6.256 3.457-1.995c.82-.473 1.877-.716 2.878-.716.83 0 1.62.166 2.209.506l10.634 6.14c1.298.749 1.134 2.07-.366 2.936l-.73.422 12.842 7.413c.893.516 1.094 1.303.644 2.026.76.8.66 1.758-.372 2.354l-12.77 7.374.725.418c1.49.861 1.655 2.176.363 2.922l-10.576 6.107c-.585.336-1.372.502-2.196.502M72.82 104.583c-.958 0-1.97-.232-2.755-.685L34.476 83.35c-1.434-.828-1.592-2.093-.35-2.81l46.539-26.87c.562-.324 1.32-.483 2.113-.483.958 0 1.97.232 2.755.686l35.589 20.547c1.435.829 1.592 2.093.35 2.81L74.932 104.1c-.562.325-1.32.484-2.112.484M47.663 125.944c-5.871 0-10.63-2.53-10.63-5.654 0-.057.013-.112.016-.17.17-3.042 4.851-5.484 10.614-5.484 5.764 0 10.445 2.442 10.615 5.485.003.057.016.112.016.17 0 3.123-4.759 5.653-10.63 5.653M128.201 97.14c-5.87 0-10.63-2.532-10.63-5.654 0-.058.014-.115.017-.17.17-3.044 4.85-5.485 10.614-5.485 5.764 0 10.445 2.441 10.615 5.485.003.057.016.112.016.17 0 3.122-4.76 5.653-10.631 5.653M143.361 85.169c-5.87 0-10.63-2.531-10.63-5.654 0-.057.013-.113.017-.17.17-3.044 4.85-5.485 10.613-5.485 5.764 0 10.445 2.441 10.615 5.486.004.057.017.112.017.169 0 3.123-4.76 5.654-10.63 5.654" opacity=".06"/><path d="M107.59 63.965c-5.388 0-9.755-2.322-9.755-5.189 0-.052.012-.102.015-.154.155-2.794 4.45-5.034 9.74-5.034 5.289 0 9.584 2.24 9.74 5.034.003.052.015.102.015.154 0 2.867-4.367 5.189-9.756 5.189" opacity=".06"/><path d="M138.822 46.135c2.795-.186 2.852-10.172 2.852-10.172l-.434-.605s-1.649-.71-2.953 2.34c-.695 1.628-2.032 3.423-2.192 5.569-.064.847.27 1.603.606 2.182.409.702.9.768 2.12.686" fill="#00476c"/><path d="M137.556 75.586s-.606.66-1.416 1.448c-.749.73-.98.94-1.676 1.619-.406.396-.072.76.702.73.68-.026 2.22-.357 3.082-.667.612-.22 1.734-.84 2.308-1.202.572-.363.684-.866.684-.866V75.43l-3.684.156M147.185 77.103s-.14 1.249-.227 2.818c-.086 1.568.136 2.953.615 3.126.48.172 1.845.15 2.622-2.027.777-2.179.313-4.291.313-4.291l-3.323.374" fill="#6d3439"/><path d="M148.738 55.64c.286-4.47-2.177-6.82-2.177-6.82.196-1.506-6.79.602-6.79.602s-1.497 8.098-2.129 12.36c-.718 4.847-.404 13.497-.404 13.497s.09 1.054 1.896 1.047c1.385 0 2.527-1.133 2.527-1.133l.144-10.099 1.604-7.965s.274 7.433 1.292 9.578c1.86 3.923 1.86 10.837 1.86 10.837s2.342.836 3.947.035c1.604-.803 1.29-1.699 1.29-1.699s-.406-5.361-2.468-10.003c-.173-3.524-.723-8.184-.592-10.237" fill="#cbedff"/><path d="M138.791 51.656c1.41 1.487 3.748 2.285 5.75 2.08 1.434-.146 2.699-.78 3.848-1.604-.211-1.49-.361-3.025-.25-3.888.399-3.058.994-8 .886-8.81-.18-1.353-3.248-2.82-3.248-2.82s-2.176-1.684-4.431-.797c0 0-2.412 1.948-2.7 4.7-.142 1.367.275 5.97.288 8.988.001.51-.058 1.3-.143 2.15" fill="#0069a0"/><path d="M141.458 37.387s-.655.919-.856 1.885c-.39 1.87.514 3.377.514 3.377s.937-1.087 1.859-1.925c1.108-1.005 1.694-1.75 1.694-1.75l-3.21-1.587" fill="#00476c"/><path d="M141.421 37.698s-.388 1.03-.484 2.15c-.095 1.122.243 1.893.243 1.893s1.942-1.836 2.584-2.469c.357-.352-.675-.672-1.424-1-.597-.261-.919-.574-.919-.574" fill="#eaf7ff"/><path d="M142.206 35.733l-.145 2.12s.279.419.995 1.025c.766-.239 2.544-1.889 2.544-1.889l-.593-3.291-2.8 2.035" fill="#f7988b"/><path d="M145.336 30.08c-.797-1.017-3.09-1.873-4.583.337-1.566 2.318-.086 6.106 1.286 5.885.768-.123 2.497-.824 3.255-2.06.853-1.393.661-3.373.042-4.163" fill="#fbc7c9"/><path d="M142.277 36.312l.063 1.96-1.396.57s-.034-2.078 1.333-2.53M145.39 35.825s-.253.996-1.255 1.562c-.513.29-1.795.885-1.795.885l.525 1.577s3.186-1.536 3.662-2.462c.192-.374-.341-1.259-1.137-1.562M140.244 43.715l-.177 2.669 1.695.98.177-2.672-1.695-.98" fill="#eaf7ff"/><path d="M140.355 43.964l-.02.3 1.44.833.02-.3-1.44-.833" fill="#c42653"/><path d="M140.861 44.825l-.126 1.752.872.503.126-1.752-.872-.503" fill="#e2e0ed"/><path d="M144.027 44.005c.708.301 1.054.417 1.71.684l.658.267v1.978l-3.033-.799.665-2.13" fill="#fbc7c9"/><path d="M138.254 42.342s1.644.123 3.563.719c1.545.48 2.43 1.26 2.43 1.26s-.304 1.119-.668 1.55c-.365.43-5.541.745-6.41.196-.867-.549-.79-3.334 1.085-3.725" fill="#0069a0"/><path d="M143.303 43.692s-.64.21-.686 1.075c-.045.864.087 1.368.087 1.368l1.126-.076s.283-1.02.418-1.395c.133-.375.248-.455.248-.455l-1.193-.517" fill="#eaf7ff"/><path d="M147.08 47.492s-4.916-3.516-6.308-4.294c-1.39-.778-2.039-.96-2.039-.96s-.456.475-.48 1.286c-.022.81.679 1.934 1.645 2.913.986.997 3.654 2.964 4.98 3.143 1.118.151 2.201-2.088 2.201-2.088" fill="#00476c"/><path d="M145.021 49.624c1.029.114 2.395-.32 3.31-2.016.852-1.577 1.194-2.88 1.311-4.497.193-2.687.161-4.083-1.135-4.616-.709.19-1.88 1.312-2.423 3.558-.345 1.424-1.73 5.6-1.73 5.6-.328.924-.415 1.85.667 1.97" fill="#00476c"/><path d="M140.442 42.828s-.706.06-1.073.216c-.806.343-1.029.961-1.029.961s-.546-.744-.08-1.444c.362-.543.96-.547 1.194-.477.514.154.988.744.988.744" fill="#eaf7ff"/><path d="M145.294 35.286s-.408-.252-.416-.961c.198-.291.523-.905.19-1.52-.19-.356-.933.15-.933.15s-1.174-1.465-2.074-1.82c-.642.908-1.163 1.405-1.844 1.588-.681.183-1.6-.477-1.6-.477s1.055.017 1.054-.304c-.516-.232-1.6-1.105-1.6-1.105s.986.11 1.654-1.527c.339-.83 1.01-2.03 3.25-1.873 1.208.085 2.117 1.566 2.117 1.566s.508-.432 1.303.582c.848 1.081.457 2.763-.185 3.675-.641.912-.916 2.026-.916 2.026" fill="#52585e"/><path d="M102.147 19.5s-.784 1.526-1.491 3.352c-.2.512-.522 1.42-.708 2.605-.216 1.387-.244 2.204-.244 2.204l1.472 1s.765-1.449 1.42-3.906c.323-1.216 2.174-3.967 2.174-3.967l-2.623-1.287" fill="#f8a5aa"/><path d="M101.09 20.044s.666 1.081 1.88 1.534c1.21.45 1.984.736 1.984.736s1.025-1.65 2.161-4.747c.643-1.75-1.64-2.707-2.886-1.694-1.634 1.329-3.14 4.17-3.14 4.17" fill="#4f8e34"/><path d="M102.201 55.97c.797-.776 1.393-1.424 1.393-1.424l3.626-.153v1.198s-.11.495-.674.852c-.564.357-1.668.967-2.27 1.183-.849.305-2.364.63-3.033.657-.761.029-1.09-.33-.69-.72.684-.666.912-.873 1.648-1.592M110.619 56.548l3.27-.368s.455 2.078-.308 4.221c-.765 2.143-2.109 2.164-2.58 1.994-.472-.17-.69-1.532-.605-3.076.085-1.543.223-2.771.223-2.771" fill="#6d3439"/><path d="M106.35 28.076c-1.506.447-2.896.989-2.896.989s-.952 7.036-1.245 11.267c-.331 4.808.751 14.289.751 14.289s.17 1.026 1.94.88c1.358-.11 2.391-1.305 2.391-1.305l-.744-10.936 1.554-6.78c-.228-3.853-1.444-4.556-1.751-8.404" fill="#cbedff"/><path d="M115.157 55.344s-.927-7-2.957-11.566c-.169-3.468 1.125-7.443.336-10.88-.986-4.295-2.531-4.176-2.531-4.176.094-.722-1.49-.6-3.138-.285.003 2.877.022 5.753.003 8.63l.034-.17s.233 5.714 1.116 8.826c1.167 4.108 1.985 11.26 1.985 11.26s2.306.822 3.884.032c1.579-.79 1.269-1.671 1.269-1.671" fill="#cbedff"/><path d="M105.8 16.62c.56-.346 1.067-.494 1.067-.494l3.035.703s2.935.895 3.63 3.18c.05.717-.034 2.388-.15 3.139-.106.067-.795-.046-.846.101-.922 2.686-.39 6.174-.197 8.873-4.556 1.999-7.979.993-9.24-.296 0-4.738-1.496-11.388 2.701-15.207" fill="#63b241"/><path d="M106.33 16.486s-.136.24-.705 1.605c-.568 1.364-.863 2.16.192 2.58 1.057.42 2.03-.656 3.195-1.784 1.165-1.129 1.275-1.917 1.275-1.917s-.807-.598-1.807-.844c-1-.245-2.15.36-2.15.36" fill="#4f8e34"/><path d="M106.683 16.26l2.756-2.002.463 2.571s-.574.99-1.265 1.77c-.519.583-2.14 1.847-2.792 1.401-.76-.519.697-2.913.697-2.913l.141-.827" fill="#f8a5aa"/><path d="M109.763 10.698c.609.777.798 2.724-.041 4.094-.745 1.217-2.447 1.906-3.203 2.028-1.35.218-2.806-3.51-1.265-5.79 1.47-2.175 3.724-1.332 4.509-.332" fill="#fbc7c9"/><path d="M108.466 9.048c.775.127 1.361.6 1.775 1.178 1.375.293 1.235 2.273.894 3.022-.66 1.444-1.413 1.544-1.413 1.544s.196-.788.023-1.132c-.15-.293-.618-.343-.775.178-.174.054-.382.037-.382.037l.158-1.041s-.794.403-1.694-.117c-.835-.483-1.648-.202-1.938.071-.178-.443-.16-.7-.137-1.062-.535-.375-1.044-.711-.966-.966.41.12.882.13 1.28-.12-.338-.266-.504-.507-.698-.797.939.12 2.968-.943 3.873-.795" fill="#4d5359"/><path d="M99.067 27.34s-.255.655.104 1.412c.247.524.898 1.266 1.58 1.227.78-.044.363-.702-.258-1.32-.62-.619-1.426-1.318-1.426-1.318" fill="#f8a5aa"/><path d="M45.715 74.06l-4.935 2.849v-4.416l4.935-2.85v4.417" fill="#0069a0"/><path d="M39.807 71.931v4.417l.973.56v-4.415l-.973-.562" fill="#005a8a"/><path d="M79.195 54.907l-4.935 2.85V53.34l4.935-2.849v4.416" fill="#0069a0"/><path d="M73.288 52.779v4.416l.972.561V53.34l-.972-.561" fill="#d7a4d7"/><path d="M82.133 8.3l-2.461-1.4-.002.016c-.322-.18-.734-.174-1.188.088L33.04 33.24c-1.012.585-1.84 2.167-1.84 3.517v36.294c0 .77.274 1.293.694 1.501h-.013l2.41 1.366-.153-2.117 44.344-25.602c1.012-.585 1.84-2.167 1.84-3.517v-34.52l1.81-1.866" fill="#0069a0"/><path d="M80.971 49.618l-45.44 26.236c-1.013.584-1.841-.041-1.841-1.392V38.168c0-1.35.828-2.932 1.84-3.517L80.971 8.415c1.013-.584 1.842.043 1.842 1.392v36.294c0 1.35-.829 2.932-1.842 3.517" fill="#eaf7ff"/><path d="M81.221 45.478L35.281 72V36.86l45.94-26.523v35.14" fill="#cbedff"/><path d="M63.142 58.722l-5.85 3.377c-.302.175-.55-.016-.55-.416 0-.403.248-.877.55-1.051l5.85-3.378c.303-.175.55.016.55.417 0 .403-.247.876-.55 1.051" fill="#eaf7ff"/><path d="M79.56 12.982L36.879 37.614v31.788l42.683-24.633V12.982" fill="#9fdcff"/><path d="M119.442 72.33l-3.012-.133v.275L84.76 54.19c-1.352-.781-3.418-.867-4.59-.19L38.51 78.05v-.494h-3.013v3.014h.005c.037.497.407 1.012 1.11 1.417l33.561 19.377c1.354.782 3.419.867 4.59.19l43.889-25.338c.47-.272.738-.628.79-1.006v-2.88" fill="#0069a0"/><path d="M118.652 73.446L74.765 98.785c-1.172.676-3.238.59-4.59-.19L36.611 79.216c-1.353-.78-1.501-1.973-.33-2.65L80.17 51.228c1.172-.676 3.238-.59 4.59.19l33.563 19.378c1.352.78 1.5 1.974.33 2.65" fill="#eaf7ff"/><path d="M104.83 65.61L61.335 90.72l-22.07-12.74L82.76 52.868l22.07 12.74M102.388 80.509l-15.39 8.886-8.234-4.754 15.39-8.886 8.234 4.754" fill="#ceecff"/><path d="M41.169 77.928l3.035-1.752 2.184 1.26-3.036 1.753-2.183-1.26M44.342 79.76l3.036-1.752 2.183 1.26-3.036 1.753-2.183-1.26M47.516 81.593l4.097-2.366 2.183 1.26-4.098 2.366-2.182-1.26M86.767 58.931l1.98-1.143 5.356 3.093-1.98 1.143-5.356-3.093M50.689 83.425l4.098-2.366 2.183 1.26-4.098 2.366-2.183-1.26M53.862 85.257l5.418-3.127 2.183 1.26-5.418 3.128-2.183-1.26M87.07 66.085l8.088-4.67 2.183 1.26-8.089 4.67-2.183-1.26M57.035 87.089l3.037-1.752 2.182 1.26-3.035 1.753-2.184-1.261M44.965 75.737L48 73.984l2.183 1.26-3.036 1.753-2.183-1.26M48.139 77.569l3.035-1.753 2.184 1.26-3.037 1.754-2.182-1.261M48.8 73.523l3.036-1.753 2.183 1.26-3.035 1.753-2.184-1.26M51.974 75.354l3.036-1.752 2.183 1.26-3.037 1.753-2.182-1.26M52.597 71.331l3.035-1.753 2.184 1.26-3.037 1.753-2.182-1.26M55.77 73.163l3.035-1.753 2.183 1.26-3.035 1.753-2.184-1.26M56.422 69.122l3.035-1.753 2.183 1.26-3.035 1.754-2.183-1.26M59.594 70.954l3.037-1.752 2.183 1.26-3.036 1.753-2.184-1.26M60.217 66.93l3.037-1.752 2.183 1.26-3.036 1.753-2.184-1.26M63.391 68.763l3.035-1.753 2.184 1.26-3.036 1.753-2.183-1.26M64.052 64.716l3.037-1.752 2.183 1.26-3.036 1.753-2.184-1.26M67.226 66.549l3.036-1.753 2.183 1.26-3.036 1.753-2.183-1.26M52.472 78.731l3.036-1.753 2.183 1.261-3.036 1.753-2.183-1.26M55.645 80.563l3.036-1.752 2.183 1.26-3.036 1.753-2.183-1.261M56.308 76.517l3.035-1.753 2.184 1.26-3.036 1.753-2.183-1.26M59.48 78.349l3.037-1.753 2.182 1.26-3.036 1.753-2.183-1.26M60.103 74.325l3.037-1.752 2.182 1.26-3.035 1.753-2.184-1.261M63.277 76.157l3.035-1.753 2.184 1.261-3.036 1.753-2.183-1.26M63.929 72.117l3.035-1.753 2.184 1.26-3.036 1.753-2.183-1.26M67.102 73.949l3.035-1.752 2.183 1.26-3.035 1.752-2.183-1.26M67.724 69.925l3.037-1.753 2.182 1.26-3.035 1.754-2.184-1.261M70.898 71.757l3.036-1.752 2.183 1.26-3.036 1.753-2.183-1.26M71.56 67.71l3.035-1.752 2.183 1.26-3.035 1.753-2.183-1.26M74.733 69.543l3.036-1.753 2.183 1.26-3.035 1.753-2.184-1.26M75.369 65.512l3.036-1.753 2.183 1.26-3.036 1.753-2.183-1.26M78.542 67.344l3.036-1.753 2.183 1.26-3.035 1.753-2.184-1.26M60.329 81.524l3.035-1.753 2.183 1.26-3.035 1.754-2.183-1.261M64.164 79.31l3.035-1.753 2.184 1.26-3.036 1.753-2.183-1.26M67.96 77.118l3.036-1.753 2.183 1.26-3.036 1.753-2.183-1.26M71.785 74.91l3.035-1.754 2.184 1.261-3.036 1.753-2.183-1.26M75.58 72.718l3.037-1.753 2.183 1.26-3.036 1.753-2.183-1.26M79.416 70.504l3.036-1.753 2.183 1.26-3.036 1.753-2.183-1.26M83.225 68.304l3.037-1.752 2.183 1.26-3.036 1.753-2.184-1.261M79.204 63.297l3.036-1.752 2.183 1.26-3.035 1.753-2.184-1.261M82.378 65.13l3.035-1.754 2.184 1.261-3.036 1.753-2.183-1.26M83 61.105l3.036-1.752 2.184 1.26-3.036 1.753L83 61.106M86.174 62.938l3.036-1.753 2.183 1.26-3.036 1.753-2.183-1.26M67.85 62.525l3.034-1.753 2.184 1.26-3.036 1.753-2.183-1.26M71.022 64.357l3.036-1.753 2.183 1.26-3.036 1.754-2.183-1.261M71.733 60.283l3.035-1.753 2.184 1.26-3.036 1.753-2.183-1.26M74.906 62.115l3.036-1.753 2.183 1.26-3.036 1.753-2.183-1.26M75.529 58.09l3.036-1.752 2.183 1.26-3.036 1.753-2.183-1.26M78.702 59.923l3.035-1.753 2.184 1.26-3.036 1.754-2.183-1.26M79.364 55.876l3.036-1.752 2.183 1.26-3.036 1.753-2.183-1.26M82.537 57.708l3.036-1.752 2.183 1.26-3.036 1.753-2.183-1.26M60.832 84.898l3.036-1.753 2.183 1.26-3.036 1.753-2.183-1.26M64.667 82.683l3.036-1.753 2.183 1.261-3.035 1.753-2.184-1.26M84.563 71.196l3.036-1.753 2.184 1.26-3.037 1.753-2.183-1.26M88.36 69.004l3.035-1.753 2.183 1.26-3.035 1.754-2.183-1.26M92.195 66.79l3.036-1.753 2.183 1.26-3.036 1.753-2.183-1.26M95.95 64.622l2.317-1.338 2.183 1.261-2.316 1.337-2.183-1.26M68.502 80.47l15.326-8.85 2.184 1.261-15.326 8.848-2.184-1.26" fill="#0069a0"/><path d="M42.762 84.903l-4.318-2.492v-1.39l4.318 2.492v1.39M47.757 87.792l-4.317-2.493v-1.39l4.317 2.493v1.39" fill="#eaf7ff"/><path d="M66.54 22.7l-.788-.453h-.017c-.07-.044-.163-.047-.267.017L38.551 37.805c-.222.127-.402.471-.402.768v28.026c0 .137.042.235.105.293h-.002.008l.029.017.829.478.508-.946-.205-.05 26.047-15.039c.222-.127.402-.471.402-.767V23.033l.27.223.403-.555" fill="#0099ea"/><path d="M66.695 51.056c0 .296-.18.64-.401.768l-26.919 15.54c-.221.13-.401 0-.401-.303V39.035c0-.296.18-.64.401-.768l26.919-15.541c.221-.129.4 0 .4.303v28.027" fill="#0073b0"/><path d="M65.907 50.82L39.761 65.914V40.976l26.146-15.095V50.82" fill="#eaf7ff"/><path d="M65.975 24.963l-1.059.611v-1.412l1.06-.611v1.412" fill="#0069a0"/><path d="M64.324 25.916l-1.059.611v-1.412l1.06-.61v1.41" fill="#716bbc"/><path d="M47.254 39.663a.76.76 0 00.094-.357c0-.12-.031-.2-.094-.244-.062-.044-.138-.04-.227.016l-.523.303v.844l.523-.301a.613.613 0 00.227-.256zm.1-1.392c.103 0 .193.028.27.083a.568.568 0 01.181.25c.044.11.067.242.067.399 0 .153-.02.307-.061.463-.041.156-.1.306-.173.451a.6.6 0 01.168.252c.042.106.062.237.062.39v1.12l-.527.304v-1.12c0-.119-.03-.202-.09-.251-.06-.049-.135-.047-.224 0l-.523.302v1.548l-.536.309v-3.794l.532-.307.523-.301a.66.66 0 01.33-.103M48.817 40.428l1.174-.677v.703l-1.49.86-.211.122v-3.794l.524-.302 1.177-.68v.704l-1.174.676v.846l.949-.548v.698l-.949.547v.846M51.64 37.345c.101 0 .19.029.267.088a.58.58 0 01.18.253c.043.11.065.244.065.4 0 .157-.022.315-.067.477a2.29 2.29 0 01-.182.462 1.957 1.957 0 01-.268.394c-.104.117-.214.21-.332.278l-.951.549v-.703l.951-.549a.615.615 0 00.228-.254.76.76 0 00.094-.354c0-.12-.032-.202-.094-.247-.063-.045-.139-.042-.228.017l-.099.057a.698.698 0 01-.33.104.423.423 0 01-.27-.083.553.553 0 01-.18-.253 1.092 1.092 0 01-.064-.4c0-.157.022-.316.067-.48a2.225 2.225 0 01.448-.857c.103-.117.213-.208.33-.276l.938-.543v.703l-.939.542a.595.595 0 00-.226.253.758.758 0 00-.091.353c0 .119.03.201.091.247.062.048.137.044.226 0l.107-.062a.656.656 0 01.329-.1M54.446 34.087v2.531c0 .173-.024.351-.075.535a2.536 2.536 0 01-.202.519c-.085.164-.185.31-.301.444-.117.134-.24.237-.37.312a.75.75 0 01-.368.114.48.48 0 01-.302-.096.65.65 0 01-.203-.286 1.223 1.223 0 01-.074-.448v-2.531l.527-.305v2.531a.56.56 0 00.033.201.276.276 0 00.09.126l.134.042a.342.342 0 00.164-.05.606.606 0 00.165-.142 1.16 1.16 0 00.228-.434.906.906 0 00.035-.241v-2.523l.519-.299M56.867 32.69l.527-.304v3.794l-.527.304V34.1l-.532 1.55-.42.242-.523-.93v2.373l-.527.305v-3.795l.524-.302.74 1.324.738-2.178M58.34 34.93l1.173-.677v.703l-1.49.86-.21.121v-3.794l.523-.302 1.177-.68v.703l-1.173.677v.846l.947-.548v.698l-.947.548v.845" fill="#0069a0"/><path d="M52.24 41.02l-10.93 6.31v15.894l10.93-6.31V41.02" fill="#cbe7be"/><path d="M47.2 58.5c1.544-1.042 2.654-2.337 2.654-2.337s-1.503-.343-1.503-1.01v-1.922l-1.576.923-1.575.895v1.923c0 .667-1.502 2.744-1.502 2.744s1.11.016 2.653-.727c.07-.021.144-.052.23-.1.066-.038.13-.08.194-.118.066-.036.13-.069.195-.108.086-.049.16-.106.23-.164" fill="#ffdcbf"/><path d="M48.86 49.256c0 1.881-.96 4.76-2.147 5.445-1.186.685-2.149-1.083-2.149-2.964s.963-3.962 2.149-4.647c1.187-.685 2.148.285 2.148 2.166" fill="#ffebdb"/><path d="M48.584 48.973s.893-.71.873.494c-.02 1.203-1.192 2.047-1.192 2.047l.319-2.54M44.882 51.11s-.893.323-.873 1.503c.02 1.18 1.191.67 1.191.67l-.318-2.173" fill="#ffebdb"/><path d="M48.706 50.485c-.185.578-.491 1.466-.659 1.59-.121.09-.684-.262-1.26.07-.612.355-1.24 1.395-1.369 1.447-.167.069-.472-.465-.658-.829l-.116.067c.05.476.149 1.309.274 2.03.188 1.082.681 1.647 1.795.905l.04-.023c1.115-.544 1.607-1.679 1.795-2.977.125-.866.223-1.811.274-2.346l-.116.067" fill="#52585f"/><path d="M47.55 52.82c-.076-.099-.547-.393-.77-.281h-.011c-.224.147-.694.983-.771 1.172-.079.19.216.761.736.461l.081-.047c.52-.3.815-1.21.736-1.311" fill="#ffebdb"/><path d="M48.56 45.426c-.21-.05-.99.132-1.786.586-.834.476-1.683 1.234-1.908 1.547-.352.488-.48 1.027-.48 1.625 0 1.474.219 2.075.219 2.075.364-.632.456-1.865.595-2.055.289-.391.742-.23 1.304-.413.067-.023.399-.224.466-.281.54-.465.976-1.11 1.255-1.052.14.03.232 1.155.596 1.366 0 0 .219-.853.219-2.326 0-.598-.129-.99-.48-1.072" fill="#52585f"/><path d="M51.223 55.76c-.253.016-.53.033-.778.06-1.173.136-1.669-.083-1.669-.083-.01 0-1.567 2.108-2.002 2.698-.434-.088-1.993-.401-2.001-.387 0 0-.496.792-1.67 2.012a42.49 42.49 0 00-.778.837c-.495.548-.82 1.374-.82 2.085v.13l5.155-2.977.229-.132 5.155-2.976v-.13c0-.711-.325-1.162-.82-1.137" fill="#92d6ff"/><path d="M55.027 52.414l.3.639.672-.259-.486.912.114.826-.6-.074-.601.768.115-.957-.485-.352.67-.518.301-.984" fill="#d8f0ff"/><path d="M57.267 51.102l.3.638.671-.257-.486.911.115.826-.6-.074-.6.768.114-.958-.486-.35.672-.519.3-.984M59.507 49.79l.3.638.672-.258-.486.912.114.826-.6-.075-.601.767.115-.957-.485-.351.67-.518.301-.985M61.747 48.5l.3.638.671-.258-.486.912.116.826-.601-.074-.6.768.114-.958-.486-.351.672-.518.3-.985M63.987 47.188l.3.638.672-.258-.486.912.114.825-.6-.075-.6.768.114-.958-.486-.35.672-.518.3-.985M65.176 33.61l-11.338 6.545v1.021l11.338-6.545V33.61M65.176 35.746l-11.338 6.546v1.02l11.338-6.545v-1.02" fill="#92d6ff"/><path d="M65.176 37.883l-11.338 6.545v1.021l11.338-6.545v-1.021M65.176 40.019l-11.338 6.545v1.021l11.338-6.545v-1.021M65.176 42.115L53.838 48.66v1.021l11.338-6.545v-1.021M58.81 47.926v1.021l6.366-3.675v-1.021l-6.366 3.675" fill="#d8f0ff"/><path d="M83.267.485l-.789-.452h-.016c-.071-.046-.163-.047-.268.016L55.278 15.59c-.222.13-.402.473-.402.769v28.026c0 .137.041.236.105.294h-.002.008l.03.016.828.48.508-.947-.205-.049L82.195 29.14c.222-.129.403-.472.403-.767V.82l.27.223.402-.555" fill="#0099ea"/><path d="M83.421 28.841c0 .297-.18.64-.401.768L56.102 45.15c-.222.127-.402 0-.402-.303V16.82c0-.296.18-.64.402-.768L83.02.512c.222-.13.401 0 .401.303v28.026" fill="#0073b0"/><path d="M82.634 28.605L56.488 43.7V18.762L82.634 3.667v24.938" fill="#eaf7ff"/><path d="M82.702 2.748l-1.059.611V1.948l1.059-.612v1.412" fill="#0069a0"/><path d="M81.05 3.701l-1.058.612V2.9l1.059-.611v1.412" fill="#716bbc"/><path d="M63.981 17.448a.76.76 0 00.094-.357c0-.12-.031-.2-.094-.244-.062-.044-.138-.04-.227.016l-.523.302v.846l.523-.302a.622.622 0 00.227-.256zm.1-1.392c.103 0 .193.028.27.085a.558.558 0 01.18.249c.045.11.068.243.068.399 0 .153-.021.308-.062.463-.04.157-.098.306-.172.451.071.06.127.145.168.252.041.108.062.237.062.39v1.12l-.528.305v-1.12c0-.12-.03-.202-.09-.251-.06-.05-.134-.048-.223 0l-.523.302v1.548l-.536.309v-3.794l.532-.307.523-.302a.679.679 0 01.33-.102M65.544 18.213l1.173-.677v.703l-1.49.86-.21.121v-3.794l.523-.302 1.177-.68v.703l-1.173.677v.846l.948-.548v.699l-.948.547v.844M68.366 15.13c.102 0 .191.029.268.088a.572.572 0 01.18.253c.043.11.065.244.065.4 0 .157-.023.316-.067.477a2.347 2.347 0 01-.182.461 1.954 1.954 0 01-.269.395 1.31 1.31 0 01-.331.278l-.951.55v-.704l.95-.55a.612.612 0 00.228-.253.753.753 0 00.094-.355c0-.119-.031-.2-.094-.246-.062-.045-.138-.042-.227.017l-.1.057a.68.68 0 01-.33.104.434.434 0 01-.27-.083.567.567 0 01-.18-.253 1.106 1.106 0 01-.063-.402c0-.156.022-.315.066-.479a2.33 2.33 0 01.181-.463c.077-.147.167-.277.268-.393a1.29 1.29 0 01.329-.277l.94-.542v.702l-.94.543a.585.585 0 00-.226.253.75.75 0 00-.091.352c0 .119.03.201.091.248.06.047.136.044.226 0l.107-.062a.654.654 0 01.328-.101M71.173 11.872v2.531c0 .173-.025.352-.075.535a2.54 2.54 0 01-.202.52c-.085.163-.186.31-.303.444a1.476 1.476 0 01-.367.312.746.746 0 01-.37.112.483.483 0 01-.301-.094.653.653 0 01-.203-.286 1.224 1.224 0 01-.074-.448v-2.532l.527-.304v2.531c0 .079.011.146.033.2a.295.295 0 00.089.128l.134.04a.346.346 0 00.165-.05.677.677 0 00.166-.142.991.991 0 00.135-.2c.039-.074.069-.152.092-.234a.904.904 0 00.035-.241v-2.522l.519-.3M73.594 10.474l.527-.303v3.793l-.527.305v-2.384l-.532 1.55-.42.243-.523-.93v2.373l-.527.304v-3.794l.523-.303.74 1.325.739-2.179M75.066 12.716l1.174-.678v.704l-1.49.86-.21.12V9.928l.523-.302 1.177-.68v.704l-1.174.677v.845l.948-.548v.699l-.948.547v.845" fill="#0069a0"/><path d="M69.006 18.796l-10.94 6.316v15.907l10.94-6.316V18.796" fill="#cbe7be"/><path d="M61.25 29.05l-.618 1.329s.214 1.413.164 1.98c-.062.705-.657 1.236-.657 1.716 0 .674.642.381.626.891-.014.48-.212.668-.799 1.713-.446.796-.219 2.256-.219 2.256l3.788-2.188s.157-9.731 0-9.64c-.155.089-2.285 1.943-2.285 1.943" fill="#52585f"/><path d="M65.89 26.37l.619.616s-.215 1.661-.164 2.17c.062.632.657.477.657.956 0 .675-.642 1.122-.626 1.614.014.464.212.424.798.791.447.28.22 2.003.22 2.003l-3.789 2.187s-.157-9.55 0-9.64c.157-.09 2.286-.696 2.286-.696" fill="#52585f"/><path d="M67.916 33.279c-.48.02-1.452.119-1.452.119l-2.826 1.631-.228.13-2.826 1.632s-.971 1.026-1.453 1.56c-.566.627-.605 2.4-.605 2.4l4.884-2.819.228-.132 4.884-2.82s-.04-1.728-.606-1.702" fill="#92d6ff"/><path d="M64.733 32.433c0-.34-.011-.686-.025-.996l-2.345 1.354c-.014.326-.026.684-.026 1.025 0 .993-1.753 2.976-1.753 2.976s.691.902 2.417.202c.101-.02.967-.519 1.07-.617 1.725-1.293 2.416-2.993 2.416-2.993s-1.754.042-1.754-.951" fill="#ffdcbf"/><path d="M65.602 28.13c0 1.81-.926 4.578-2.067 5.236-1.14.66-2.066-1.04-2.066-2.85s.925-3.81 2.066-4.469c1.141-.659 2.067.274 2.067 2.084" fill="#ffebdb"/><path d="M66.66 26.115c-.044-.71-.165-1.376-.527-1.746-.35-.358-.938-.602-1.566.49-.695-.638-1.689-.57-2.879 1.11-1.343 1.898-1.283 4.851-.65 6.015.461-1.949 2.05-3.18 2.941-4.797.118.245.297.423.494.55.242.154.522.224.796.305.427.127.896.8.677 2.012.716-1.248.754-3.294.714-3.94" fill="#52585f"/><path d="M71.753 30.2l.301.637.671-.257-.486.912.115.825-.6-.073-.601.767.114-.958-.485-.35.671-.518.3-.984M73.993 28.887l.3.638.672-.258-.486.913.115.825-.6-.075-.601.768.114-.958-.486-.351.672-.518.3-.984M76.233 27.575l.301.638.671-.258-.486.912.115.825-.6-.073-.601.768.114-.958-.485-.351.671-.518.3-.984M78.474 26.285l.3.638.671-.257-.486.911.115.826-.6-.075-.601.768.114-.958-.486-.35.672-.518.3-.985M80.713 24.973l.301.638.671-.258-.486.912.115.825-.6-.073-.601.767.114-.957-.485-.351.671-.518.3-.985M81.902 11.395l-11.337 6.546v1.02l11.337-6.545v-1.021M81.902 13.531l-11.337 6.546v1.021l11.337-6.545V13.53" fill="#92d6ff"/><path d="M81.902 15.668l-11.337 6.545v1.021l11.337-6.545v-1.021M81.902 17.804L70.565 24.35v1.022l11.337-6.546v-1.02M81.902 19.9l-11.337 6.545v1.022l11.337-6.546v-1.02" fill="#d8f0ff"/><path d="M75.537 25.711v1.02l6.365-3.673v-1.022l-6.365 3.675" fill="#ffebdb"/><path d="M103.089 6.404l-.79-.452h-.016c-.07-.045-.163-.047-.266.017l-26.918 15.54c-.222.128-.402.472-.402.769v28.026c0 .137.042.235.105.293h-.001.008l.028.016.83.479.508-.946-.205-.05 26.047-15.038c.222-.129.402-.472.402-.768V6.738l.27.223.402-.555" fill="#0099ea"/><path d="M103.244 34.761c0 .296-.18.64-.402.768L75.924 51.07c-.222.13-.401 0-.401-.303V22.74c0-.296.179-.64.4-.768l26.919-15.541c.221-.129.402.016.402.303v28.027" fill="#0073b0"/><path d="M102.456 34.524L76.31 49.62V24.68l26.146-15.095v24.938" fill="#eaf7ff"/><path d="M102.525 8.668l-1.06.611V7.867l1.06-.612v1.413" fill="#0069a0"/><path d="M100.873 9.621l-1.059.611V8.82l1.06-.611v1.412" fill="#716bbc"/><path d="M83.803 23.367a.759.759 0 00.094-.357c0-.12-.031-.199-.094-.244-.062-.044-.138-.039-.227.017l-.523.301v.846l.523-.302a.622.622 0 00.227-.257zm.1-1.392c.103 0 .193.028.27.085a.567.567 0 01.18.25c.045.11.067.242.067.398 0 .154-.02.308-.06.464-.042.156-.1.306-.173.451.071.06.127.144.168.252.04.107.062.237.062.39v1.12l-.528.304v-1.12c0-.12-.03-.202-.09-.251-.06-.049-.134-.047-.223 0l-.523.301v1.549l-.536.308v-3.793l.532-.307.523-.302a.66.66 0 01.33-.103M85.366 24.133l1.173-.678v.703l-1.49.86-.21.121v-3.793l.523-.303 1.177-.68v.704l-1.173.677v.845l.948-.548v.699l-.948.547v.845M88.189 21.049c.101.001.19.03.267.088a.587.587 0 01.18.253c.043.11.065.244.065.4 0 .157-.023.316-.067.478a2.353 2.353 0 01-.182.46 1.94 1.94 0 01-.27.396c-.103.117-.213.21-.33.277l-.951.55v-.703l.951-.55a.618.618 0 00.228-.253.753.753 0 00.093-.355c0-.12-.031-.2-.093-.246-.064-.046-.139-.043-.228.016l-.1.057a.677.677 0 01-.33.105.433.433 0 01-.269-.084.567.567 0 01-.18-.253 1.107 1.107 0 01-.064-.401c0-.157.022-.316.066-.479.045-.163.105-.318.181-.464a2 2 0 01.268-.393c.102-.117.211-.209.328-.276l.94-.543v.702l-.94.543a.59.59 0 00-.225.253.75.75 0 00-.091.352c0 .12.03.202.091.248.061.047.136.044.225 0l.108-.062a.655.655 0 01.329-.101M90.995 17.792v2.53c0 .174-.024.352-.075.535-.049.183-.116.356-.202.52a2.32 2.32 0 01-.302.444 1.496 1.496 0 01-.368.312.767.767 0 01-.37.114.478.478 0 01-.301-.096.644.644 0 01-.203-.285 1.226 1.226 0 01-.074-.449v-2.531l.527-.305v2.532c0 .078.012.145.033.2a.29.29 0 00.09.127l.133.041a.348.348 0 00.165-.05.677.677 0 00.166-.142c.052-.06.097-.128.135-.201.038-.073.069-.15.092-.233a.907.907 0 00.035-.241v-2.522l.519-.3M93.416 16.394l.527-.303v3.793l-.527.305v-2.385l-.532 1.55-.42.243-.523-.93v2.373l-.527.305V17.55l.523-.302.74 1.324.739-2.178M94.889 18.635l1.173-.677v.703l-1.49.86-.21.122V15.85l.523-.302 1.177-.68v.703l-1.173.678v.845l.947-.548v.699l-.947.547v.845" fill="#0069a0"/><path d="M88.794 24.716l-10.94 6.315v15.907l10.94-6.316V24.716" fill="#cbe7be"/><path d="M83.565 42.33c1.52-1.039 3.36-3.42 3.36-3.42s-1.087-.13-1.566-.27c-.48-.14-.71-1.232-.71-1.93v-1.39l-1.291.746-.003.001-1.291.746v1.39c0 .697-.23 2.054-.71 2.75-.48.693-1.565 2.076-1.565 2.076s1.838.259 3.359-.458l.123-.055.085-.054.084-.044.124-.088" fill="#ffdcbf"/><path d="M85.424 32.24c0 1.81-.925 4.577-2.066 5.236-1.141.658-2.067-1.041-2.067-2.85 0-1.81.926-3.81 2.067-4.47 1.141-.659 2.066.274 2.066 2.084" fill="#ffebdb"/><path d="M85.157 31.968s.86-.683.84.475c-.02 1.156-1.147 1.968-1.147 1.968l.307-2.443M81.597 34.023s-.859.31-.84 1.444c.02 1.135 1.146.646 1.146.646l-.306-2.09" fill="#ffebdb"/><path d="M81.291 34.626l1.045-2.058s.67-.155 1.798-.339c1.171-.19 1.29.576 1.29.576s1.333-3.45-.223-4.267c-1.097-.577-2.504-.059-3.548 2.486-1.294 1.174-.974 3.667-.362 3.602" fill="#52585f"/><path d="M88.69 39.569c-.063-.61-.293-.939-.815-.887-.521.05-1.984.124-1.984.124-.49 1.826-2.11 2.982-2.567 3.277-.456.231-2.076.946-2.567-.313 0 0-1.463 1.616-1.984 2.167-.522.552-.752 1.146-.814 1.828-.063.682-.105 1.173-.105 1.173l5.346-3.086.248-.143 5.346-3.087s-.042-.443-.104-1.053" fill="#92d6ff"/><path d="M91.575 36.12l.3.637.672-.258-.486.912.115.825-.6-.073-.6.768.114-.958-.486-.35.67-.519.301-.984" fill="#d8f0ff"/><path d="M93.815 34.807l.3.637.672-.257-.486.912.115.826-.6-.075-.602.768.116-.958-.486-.35.671-.519.3-.984M96.055 33.494l.3.639.672-.258-.486.912.115.825-.6-.075-.6.768.113-.958-.485-.35.671-.519.3-.984M98.295 32.205l.3.638.672-.258-.486.912.115.825-.6-.073-.602.768.116-.958-.486-.351.671-.518.3-.984M100.535 30.893l.3.637.672-.257-.486.912.115.825-.6-.073-.601.767.114-.958-.486-.35.672-.518.3-.984M101.723 17.315L90.387 23.86v1.021l11.336-6.545v-1.021M101.723 19.451l-11.336 6.545v1.022l11.336-6.546v-1.02" fill="#92d6ff"/><path d="M101.723 21.587l-11.336 6.546v1.021l11.336-6.545v-1.022M101.723 23.724l-11.336 6.545v1.021l11.336-6.545v-1.021M101.723 25.82l-11.336 6.545v1.021l11.336-6.545v-1.022M95.36 31.63v1.022l6.363-3.675v-1.021L95.36 31.63" fill="#d8f0ff"/><path d="M130.618 48.548c.345.092 2.896-.029 3.828 2.417.932 2.446 1.716 4.747 2.026 6.052.311 1.304-.14 2.67-2.026 4.41-1.888 1.74-2.746 2.143-2.746 2.143s-1.953-1.832-2.256-4.255c-.303-2.423 1.174-10.767 1.174-10.767" fill="#f60016"/><path d="M129.42 59.583l6.71 3.873.036-5.767-6.709-3.873-.037 5.767" fill="#ec299b"/><path d="M128.847 59.902l6.709 3.874.037-5.767-6.71-3.874-.036 5.767" fill="#0069a0"/><path d="M135.593 58.009l.573-.32-.037 5.767-.573.32.037-5.767" fill="#005b8a"/><path d="M136.166 57.69l-.573.319-6.746-3.913.61-.28 6.709 3.873" fill="#0086cb"/><path d="M129.642 54.248l.005-.684 6.709 3.874-.036 5.766-.473-.272.032-5.083-6.236-3.6" fill="#eaf7ff"/><path d="M120.7 90.854c.47-.295 3.523.553 3.523.553l3.29 1.105-.25 2.478s-1.171 1.252-2.793.16c-.967-.652-2.835-1.49-3.538-2.502-.509-.735-.703-1.499-.232-1.794M128.841 86.048c.471-.294 3.524.554 3.524.554l3.29 1.105-.252 2.478s-1.17 1.252-2.792.158c-.966-.651-2.835-1.49-3.538-2.501-.51-.735-.703-1.5-.232-1.794" fill="#6d3439"/><path d="M133.052 63.37s1.515 1.485 1.75 4.603c.104 1.403-.644 7.39-.644 7.39s1.152 3.095 1.437 5.09c.34 2.368.255 6.993.255 6.993-.195.617-.837 1.201-2.118 1.107-1.318-.098-2.248-1.788-2.248-1.788s-.456-3.836-.885-6.377c-.245-1.447-.52-2.405-.658-3.608-.054-1.383-.195-4.747-.195-4.747s-1.582 6.29-2.083 8.213c.976 3.203.108 11.923.018 12.618-1.953 1.539-3.158.084-3.964-1.179.047-1.939-.263-5.357-.335-8.068-.057-2.137-.022-3.032-.057-3.751-.067-1.396.567-5.594.89-8.808.374-3.746.45-6.455.45-6.455l8.387-1.232" fill="#cbedff"/><path d="M125.307 54.207c-.662 2.053-.07 5.276-.113 6.435-.076 2.028-.944 4.177-.594 5.431.696.694 2.531 1.553 4.632 1.351 1.712-.163 3.683-1.108 4.672-2.792.013-.328-.89-2.027-.695-3.081.47-2.521.84-4.542.903-6.647.043-1.47.005-2.237-.613-4.252-.273-.892-1.293-1.33-2.493-1.366-.898.087-1.417 1.74-3.665 1.74-1.576.895-1.408 1.241-2.034 3.181" fill="#ff1025"/><path d="M128.508 51.435a12.56 12.56 0 003.192-1.053l-.36-2.004-2.797.66s.343 1.43 0 2.31l-.036.087" fill="#f8a5aa"/><path d="M132.352 44.156c-.575-1.22-2.706-2.624-4.74-.724-1.241 1.161-1.317 3.029-1.205 4.195.098 1.02.828 1.969 1.483 2.084.8.14 2.392-.251 3.45-1.333 1.193-1.218 1.458-3.275 1.012-4.222" fill="#fbc7c9"/><path d="M132.613 43.837c-.337-1.567-1.09-2.497-2.97-2.073-.639.144-1.004.33-1.441.411-.53.098-.86-.226-1.04-.41-.074.509-.157.737.18 1.052-.557.169-.935.145-.935.145s.376 1.599 1.874 2.231c.053.179.427 1.108.522 1.25.318-.195.667-.202.83.173.219.504-.087.865-.525 1.392-.325 1.487 1.767 2.386 1.767 2.386s.965-1.478 1.854-2.456c.89-.978 1.197-3.119-.116-4.1" fill="#40454a"/><path d="M129.632 50.225c-1.097.524-2.29.801-2.29.801s1.809.883 2.945.41c.6-.25 1.54-.765 1.757-1.043.294-.376-.344-1.028-.344-1.028s-.754.232-2.068.86" fill="#e90014"/><path d="M113.922 45.24s-2.103-1.246-3.118-1.949c-1.013-.703-2.046-1.312-2.089-.863-.032.327.549.604.76.786.211.182.37.357.494.452-.193.531-.607 1.958.335 2.454.942.497 2.444.998 2.444.998l1.174-1.878" fill="#fbc7c9"/><path d="M127.487 51.685c-.835-.897-2.809-1.556-4.34-2.21-1.13-.481-3.646-1.84-5.493-2.847-1.416-.773-3.18-1.433-3.493-1.576-.347-.158-.897-.287-1.476.669-.393.649-.546 1.439 0 1.927.666.594 2.004 1.382 3.692 2.815.725.615 4.014 2.77 5.534 3.857 1.52 1.087 3.752 4.206 4.744 3.508.814-.572 1.35-1.956 1.501-3.316.137-1.238-.02-2.13-.67-2.827" fill="#f60016"/><path d="M112.445 18.709c-.552.217-1.498 1.443-1.936 2.787-.36 1.105-.016 1.91-.294 3.457-.198 1.098-.013 2.002-.013 2.002s-3.477.148-4.335 0c-.857-.145-1.427-.756-2.078-1.427-.703-.726-1.672-1.022-2.187-.634-.443.333-.208 1.164.091 1.622.603.922.55 1.117 1.12 1.71.237.245.872.677 1.929.606.582-.04 1.325.06 1.907.165.582.104 3.256.718 4.316.713.912 0 1.187-.648 1.532-1.143.746-1.069.77-4.026 1.191-6.114.421-2.088-.166-2.79-1.242-3.747" fill="#fbc7c9"/><path d="M112.22 18.448s-.728.25-1.531 2.044c-.803 1.795-.94 4.377-.94 4.377s.99.738 2.203.82c1.271.087 1.355-.18 1.71-.52 0 0 .55-3.448.507-4.459-.058-1.385-1.95-2.262-1.95-2.262" fill="#4f8e34"/><path d="M74.209 119.978h.936l23.936-13.82c1.209-.698 3.34-.61 4.736.196l16.16 9.33c.157.09.298.189.424.29h.73v1.266h-.001c-.003.442-.27.865-.813 1.179l-11.957 6.902.68.392c.175.101.33.209.466.322h.683v1.153c.031.472-.232.926-.81 1.26l-9.901 5.716c-1.208.698-3.34.61-4.737-.195l-3.217-1.858-10.088-5.825-6.071-3.504c-.76-.439-1.147-1.003-1.152-1.537h-.004v-1.267" fill="#92d6ff"/><path d="M120.316 117.225l-11.957 6.903.68.392c1.396.807 1.549 2.037.34 2.735l-9.901 5.717c-1.21.698-3.342.61-4.737-.197l-3.218-1.857-10.087-5.824-6.072-3.505c-1.395-.806-1.549-2.037-.34-2.736l24.057-13.888c1.209-.698 3.34-.61 4.736.196l16.16 9.33c1.395.805 1.548 2.037.339 2.734" fill="#bde6ff"/><path d="M115.851 114.889l-9.95 5.744.917.53 9.95-5.745-.917-.53M113.86 113.74l-9.95 5.743.915.53 9.95-5.745-.916-.529" fill="#92d6ff"/><path d="M111.018 112.098l-9.95 5.746.917.528 9.95-5.744-.917-.53M109.026 110.948l-9.95 5.745.917.53 9.949-5.746-.916-.529M107.034 109.798l-9.95 5.745.917.53 9.949-5.746-.916-.529M96.816 113.383l-.605-.871.84-.68-1.552-.053-.988-.77-.355.838-1.45.204 1.333.57.091.897 1.178-.485 1.508.35M100.054 111.513l-.604-.87.84-.681-1.553-.052-.989-.77-.354.838-1.45.204 1.332.57.092.897 1.179-.485 1.507.35" fill="#ffebdb"/><path d="M103.292 109.643l-.605-.87.84-.68-1.552-.052-.988-.77-.354.838-1.451.204 1.333.57.092.897 1.178-.485 1.507.349" fill="#92d6ff"/><path d="M104.403 122.542l-11.887 6.864-14.97-8.643 11.888-6.863 14.97 8.642" fill="#eaf7ff"/><path d="M85.2 117.785a16.158 16.158 0 013.643-1.229s-.495 1.602.133 1.964l1.812 1.046-1.727.982-1.699.996-1.811-1.045c-.629-.363-3.402-.077-3.402-.077s.59-1.052 2.127-2.104c.059-.054.128-.107.22-.161.073-.043.145-.08.218-.12.068-.042.135-.084.207-.125a1.74 1.74 0 01.279-.127" fill="#ffdcbf"/><path d="M94.809 121.247c-1.772-1.024-5.006-1.682-6.296-.937-1.29.745-.15 2.612 1.622 3.635 1.772 1.023 4.255 1.248 5.546.503 1.29-.745.9-2.179-.872-3.201" fill="#ffebdb"/><path d="M94.924 121.662s1.154-.456.011-1.091c-1.144-.636-2.577.016-2.577.016l2.566 1.082M90.898 123.985s-.789.667-1.89 0c-1.1-.66.017-1.487.017-1.487l1.874 1.481" fill="#ffebdb"/><path d="M93.566 120.724c-.644-.14-1.647-.334-1.855-.244-.151.065-.125.788-.752 1.149-.667.384-1.988.41-2.107.502-.156.12.181.698.423 1.071l-.126.072a37.223 37.223 0 01-1.764-1.362c-.916-.765-1.18-1.537.125-2.183l.044-.024c1.118-.754 2.454-.6 3.78-.072a57.65 57.65 0 012.358 1.018l-.126.074" fill="#5f676e"/><path d="M90.739 120.542c.051.127.073.73-.154.88h.001-.011l-.003-.002c-.26.13-1.304.12-1.524.088-.222-.029-.6-.617-.034-.943l.089-.05c.565-.327 1.583-.11 1.635.019" fill="#ffebdb"/><path d="M98.252 123.613c-.067.224-.662.861-1.523 1.364-.902.526-2.077.914-2.494.956-.651.065-1.23-.108-1.792-.432-1.388-.802-1.836-1.334-1.836-1.334.794 0 2.005.584 2.26.556.525-.059.62-.573 1.098-1.003a3.5 3.5 0 01.518-.287c.731-.256 1.575-.315 1.674-.61.049-.146-.963-.846-.964-1.304 0 0 .923.258 2.311 1.06.563.325.862.658.748 1.034" fill="#5f676e"/><path d="M89.967 115.485c-.15.231-.32.483-.48.7-.765 1.032-.829 1.617-.829 1.617 0 .016-2.837.33-3.63.419-.153.457-.705 2.095-.725 2.095 0 0-1.014.037-2.8.478-.377.093-.812.191-1.213.278-.785.17-1.74.026-2.41-.36l-.122-.07 5.607-3.238.248-.143 5.607-3.237.122.07c.67.386.919.937.625 1.39" fill="#92d6ff"/><path d="M121.505 112.71v-1.021h-.58a2.528 2.528 0 00-.246-.166l-12.148-7.013.69-.398c.725-.418 1.118-.95 1.167-1.462h.005v-1.153h-.58a2.171 2.171 0 00-.246-.165l-10.06-5.808c-1.228-.709-3.394-.62-4.811.2l-3.27 1.887-10.248 5.917-6.169 3.56c-.187.108-.35.225-.493.345h-.681v1.229h.003c0 .452.27.885.827 1.206l24.44 14.11c1.228.71 3.394.62 4.812-.199l16.417-9.479c.74-.426 1.132-.97 1.168-1.494h.003v-.097" fill="#92d6ff"/><path d="M120.678 110.298l-12.148-7.013.69-.399c1.419-.819 1.575-2.069.346-2.778l-10.06-5.809c-1.228-.709-3.394-.619-4.812.2l-3.27 1.887-10.248 5.918-6.168 3.56c-1.418.82-1.574 2.07-.345 2.78l24.44 14.11c1.228.71 3.394.62 4.813-.2l16.417-9.477c1.418-.82 1.573-2.07.345-2.78" fill="#bde6ff"/><path d="M104.511 104.896l-12.077-6.973-15.209 8.78 12.078 6.973 15.208-8.78" fill="#eaf7ff"/><path d="M84.783 109.62c1.833.88 5.125 1.324 5.125 1.324s-.475-1.11-.606-1.646c-.132-.536.786-1.359 1.453-1.744l1.329-.767-1.426-.823-.003-.002-1.425-.823-1.33.767c-.666.386-2.09.915-3.02.84-.928-.077-2.85-.35-2.85-.35s.77 1.9 2.293 2.959l.12.088.098.052.09.057c.048.028.1.05.152.07" fill="#ffdcbf"/><path d="M95.457 105.827c-1.73.999-4.886 1.643-6.147.915-1.26-.727-.146-2.55 1.585-3.549 1.73-.998 4.153-1.218 5.413-.492 1.26.728.88 2.128-.85 3.126" fill="#ffebdb"/><path d="M95.57 105.422s1.126.444.01 1.065c-1.118.62-2.516-.016-2.516-.016l2.505-1.056M91.64 103.153s-.77-.65-1.845 0c-1.074.645.016 1.453.016 1.453l1.83-1.446" fill="#ffebdb"/><path d="M90.895 103.193l2.544-.137s.518.556 1.316 1.533c.829 1.014.16 1.55.16 1.55s4.036-.63 3.959-2.569c-.054-1.367-1.325-2.426-4.337-2.019-1.836-.59-4.043 1.093-3.642 1.642" fill="#5f676e"/><path d="M90.252 112.995c.548-.396.736-.797.4-1.268-.338-.47-1.215-1.829-1.215-1.829-2.017.539-4.016-.372-4.55-.645-.473-.308-2.05-1.463-1.117-2.627 0 0-2.352-.506-3.168-.701-.816-.195-1.51-.087-2.197.23s-1.18.548-1.18.548l5.902 3.408.274.158 5.902 3.407s.4-.284.949-.68M116.142 112.671l-10.11-5.836.932-.538 10.109 5.837-.931.537M114.118 113.84l-10.109-5.836.93-.537 10.11 5.836-.931.537" fill="#92d6ff"/><path d="M111.232 115.506l-10.11-5.836.932-.537 10.108 5.836-.93.537M109.208 116.675l-10.109-5.836.93-.538 10.11 5.837-.931.537M107.184 117.844l-10.109-5.837.93-.537 10.11 5.836-.931.538M96.802 114.203l-.614.883.854.692-1.577.054-1.005.781-.36-.85-1.474-.209 1.354-.58.094-.91 1.197.493 1.531-.355M100.092 116.102l-.614.883.853.692-1.577.054-1.004.782-.36-.85-1.474-.21 1.354-.579.093-.91 1.198.492 1.531-.354" fill="#abdfff"/><path d="M103.382 118.001l-.614.884.853.691-1.577.054-1.004.782-.36-.85-1.474-.21 1.354-.579.093-.91 1.198.492 1.531-.354M1.123 106.316v-1.021h.58c.076-.058.156-.115.246-.166l12.147-7.013-.69-.399c-.724-.418-1.117-.949-1.166-1.462h-.005v-1.15h.58c.075-.058.156-.115.245-.166l10.06-5.808c1.229-.709 3.394-.62 4.813.2l3.269 1.887 10.249 5.917 6.167 3.561c.187.11.351.224.494.344h.68v1.229h-.002c0 .452-.27.885-.826 1.206l-24.44 14.11c-1.23.71-3.395.62-4.813-.199l-16.417-9.478c-.74-.427-1.132-.97-1.168-1.495h-.003v-.097" fill="#92d6ff"/><path d="M1.95 103.852l12.147-7.013-.69-.398c-1.418-.819-1.574-2.07-.345-2.779l10.06-5.807c1.228-.71 3.393-.62 4.812.2l3.269 1.886 10.25 5.917 6.167 3.561c1.419.82 1.574 2.07.345 2.78l-24.44 14.11c-1.228.709-3.394.62-4.812-.2l-16.417-9.478c-1.419-.819-1.574-2.07-.346-2.779" fill="#bde6ff"/><path d="M18.104 98.458l12.078-6.972 15.208 8.78-12.078 6.972-15.208-8.78" fill="#eaf7ff"/><path d="M32.19 96.704l1.61.142s1.234.985 1.804 1.25c.707.329 1.544.054 2.003.319.645.372.01.824.506 1.09.467.25.756.167 2.078.182 1.009.017 2.278 1.036 2.278 1.036l-4.182 2.414s-9.39-5.222-9.218-5.322c.173-.1 3.12-1.111 3.12-1.111" fill="#5f676e"/><path d="M27.066 99.661l.247.931s1.706.711 2.165 1.041c.57.409.093.891.552 1.156.644.372 1.427 0 1.888.293.435.27.289.436.316 1.2.02.582 1.794 1.315 1.794 1.315l4.182-2.415s-9.045-5.422-9.218-5.322c-.173.1-1.926 1.801-1.926 1.801" fill="#5f676e"/><path d="M32.552 105.411c.287-.447.916-1.323.916-1.323l3.12-1.801.25-.145 3.12-1.801s1.518-.364 2.293-.529c.913-.195 2.63.747 2.63.747l-5.391 3.113-.251.145-5.392 3.113s-1.632-.992-1.295-1.519" fill="#92d6ff"/><path d="M33.5 101.902c-.325-.189-.65-.39-.937-.575l2.588-1.495c.32.167.67.354.994.543.95.548 3.814-.035 3.814-.035s.48 1.16-1.14 2.423c-.075.086-1.03.638-1.181.681-2.19.936-4.196.659-4.196.659s1.008-1.654.058-2.202" fill="#ffdcbf"/><path d="M28.908 100.356c1.73 1 4.886 1.643 6.146.915 1.26-.727.146-2.55-1.584-3.549-1.73-.998-4.154-1.218-5.413-.49-1.26.726-.88 2.126.85 3.124" fill="#ffebdb"/><path d="M26.396 100.255c-.653-.433-1.223-.917-1.378-1.466-.148-.534-.057-1.23 1.334-1.228-.227-1.016.386-1.93 2.65-2.139 2.555-.237 5.346 1.45 6.108 2.7-2.116-.637-4.171.203-6.21.163.171.247.241.516.253.774.015.318-.072.624-.146.93-.115.479.27 1.299 1.55 1.758-1.588 0-3.566-1.098-4.16-1.492" fill="#5f676e"/><path d="M6.486 106.226l10.11-5.836-.931-.537-10.11 5.836.931.537M8.51 107.395l10.109-5.837-.93-.537-10.11 5.836.931.538" fill="#92d6ff"/><path d="M11.396 109.06l10.11-5.835-.931-.537-10.11 5.836.931.537M13.42 110.23l10.109-5.837-.93-.537-10.11 5.836.931.537M15.444 111.398l10.109-5.837-.93-.536-10.11 5.836.931.537M25.826 107.757l.614.884-.853.691 1.576.054 1.005.781.36-.85 1.474-.208-1.354-.58-.093-.91-1.198.492-1.531-.354" fill="#abdfff"/><path d="M22.536 109.656l.614.884-.853.692 1.577.054 1.004.782.36-.852 1.474-.207-1.354-.58-.093-.91-1.198.492-1.531-.355M19.246 111.556l.614.883-.853.692 1.577.053 1.004.782.36-.85 1.475-.208-1.355-.58-.094-.91-1.197.492-1.531-.355" fill="#92d6ff"/><path d="M46.413 105.084c-.468-.67-.958-1.323-1.419-1.998.959-1.353 3.263-2.427 3.88-3.163.705-.84 1.295-.853 1.932-.144.639.712-.13 1.278-.417 1.427-.184.095-.637 0-1.174.167-.366.11-1.184 1.04-2.391 3.162a4.378 4.378 0 01-.411.548" fill="#fbc7c9"/><path d="M56.91 97.119l-5.118-2.956c-.228-.13-.454-.14-.638-.052l-.38.207-.016.369-.004.016-1.885 10.69c-.1.569.202 1.257.672 1.528l5.12 2.955.056.026h-.005l.274.2.36-.2h.001c.172-.104.303-.297.35-.565l1.885-10.69c.1-.569-.202-1.256-.672-1.527" fill="#4a2023"/><path d="M54.298 110.079l-5.12-2.956c-.47-.271-.773-.958-.672-1.527l1.885-10.69c.1-.57.567-.813 1.037-.542l5.119 2.956c.47.272.772.96.672 1.528l-1.885 10.69c-.1.568-.566.812-1.036.54" fill="#6d3439"/><path d="M54.703 109.536l-5.682-3.28 2.018-11.439 5.68 3.28-2.016 11.439" fill="#eaf7ff"/><path d="M52.329 98.722l-1.4-.809.428-2.433 1.4.808-.428 2.434M54.891 106.223l-1.4-.808.429-2.434 1.4.809-.429 2.433M54.13 97.08l-.06.332 2.155 1.244.06-.332-2.156-1.244M54.014 97.732l-.058.332 2.154 1.244.059-.332-2.155-1.244M53.899 98.384l-.058.332 2.154 1.244.06-.332-2.156-1.244M53.784 99.036l-.058.332 2.154 1.244.06-.332-2.156-1.244M50.863 98.286l-.059.331 4.927 2.845.058-.332-4.926-2.844M50.748 98.938l-.058.331 4.926 2.845.058-.332-4.926-2.844M50.633 99.59l-.058.332 4.926 2.844.059-.332-4.927-2.845M50.518 100.241l-.058.332 4.926 2.844.059-.331-4.927-2.845M49.899 103.75l-.058.333 4.926 2.844.059-.332-4.927-2.844M49.785 104.403l-.06.332 4.927 2.844.058-.332-4.926-2.844M49.67 105.055l-.06.331 4.928 2.845.058-.332-4.927-2.844M49.554 105.707l-.058.332 4.926 2.844.059-.332-4.927-2.844M53.61 102.882l-3.23-1.864-.058.332 3.23 1.864.057-.332M53.494 103.534l-3.228-1.864-.059.332 3.23 1.864.057-.332M53.38 104.186l-3.229-1.864-.058.332 3.228 1.864.059-.332M53.265 104.838l-3.23-1.864-.057.332 3.228 1.864.059-.332" fill="#c2e8ff"/><path d="M53.903 94.359l.594-.352.322.193-.394.591-.522-.432" fill="#ffebdb"/><path d="M55.626 95.508c-.238-.139-.468-.468-.451-.565.016-.096.17-.25.087-.494-.082-.244-.353-.386-.353-.386s-.266-.169-.412-.055c-.145.114-.07.399-.087.495-.016.096-.31.124-.548-.016l-.475-.274-.595.351.348 1.053 2.112 1.22.308-.5.401.232.14-.79-.475-.273" fill="#53c3ff"/><path d="M55.032 95.858c-.24-.136-.47-.466-.452-.563.017-.096.17-.25.088-.495-.083-.245-.354-.386-.354-.386s-.266-.17-.41-.056c-.146.113-.072.399-.088.495-.017.096-.31.124-.549-.016l-.475-.275-.247 1.404 2.714 1.566.247-1.402-.474-.275" fill="#0073b0"/><path d="M55.853 96.508l.108.062.14-.789-.595.352-.247 1.402.099-.058.13-.769.365-.2M54.746 96.505l-1.493-.862a.225.225 0 01-.096-.217c.015-.082.081-.116.148-.077l1.494.862c.066.04.109.137.095.218-.014.081-.081.115-.148.076" fill="#0099ea"/><path d="M46.752 111.412s2.724 1.878 4.599 3.156c1.874 1.279 2.48 1.557 2.48 1.557l-2.48 1.469s-5.146-.948-5.68-2.73c-.537-1.782 1.081-3.452 1.081-3.452" fill="#cbedff"/><path d="M53.831 114.229a84.743 84.743 0 00-5.098.274c-.74.067-2.351.105-2.351.105s-2.48.967-1.662 2.08c.819 1.114 2.774 2.561 4.46 2.377 1.686-.184 6-2.377 6-2.377l1.956-1.146s-2.095-1.333-3.305-1.314" fill="#cbedff"/><path d="M39.615 101.056c-1.218 1.144-1.842 4.168.139 5.897 1.98 1.729 2.711-5.6 2.711-5.6-.75-.359-1.383-1.675-2.85-.297" fill="#ffac29"/><path d="M45.121 92.822c-.934-.649-2.731-.446-3.51 1.2-.432.913.179 3.364.275 5.086.077 1.39-.387 2.19-.387 2.19l1.19.491c1.191.492 2.432 0 2.432 0l-.038-2.117s.88-.038 1.105-.242c.54-.495 1.171-1.344.921-3.244-.372-2.828-1.643-3.125-1.988-3.364" fill="#fbc7c9"/><path d="M53.36 114.864s-2.009-.016-2.958.225c-1.135.28-3.046.374-3.046.374l.68 1.463s.268.472 2.222 0c1.956-.472 3.102-2.062 3.102-2.062" fill="#cbedff"/><path d="M53.36 114.864c-2.895.802-9.048 2.194-9.048 2.194s-4.416-2.252-5.064-.32c-1.18 3.517.477 5.013 2.21 5.975.962.533 1.842 1.666 5.244 1.148 3.396-.516 8.598-2.903 9.625-4.123 1.198-1.42 2.234-3.314.809-4.195a6.582 6.582 0 00-.768-.41c-.833-.371-1.857-.588-3.008-.27" fill="#cbedff"/><path d="M48.335 108.02c.703-1.502.213-4.09-.234-5.068-.447-.979-2.981-1.71-2.981-1.71l-3.662-.433s-2.196.71-2.196 4c0 1.987.328 3.536.64 6.03.088.695.337 2.334-.836 5.339-.064.163-.12.392-.171.663.595 1.662 3.877 3.33 5.417 3.305 1.028-.016 2.292-.234 3.196-.876.904-.643 1.263-1.005.85-2.721-.13-.537-1.459-5.463-.023-8.53" fill="#ffcc29"/><path d="M45.1 100.64s-1.086.438-2.309 0l-1.222-.437-.405.867s.183.596 1.393.981 2.304.312 3.495-.276c.008-.783-.952-1.134-.952-1.134" fill="#ffac29"/><path d="M43.418 91.5c-1.673 0-3.153 1.213-3.152 4.854 0 .744.687 2.007 1.329 2.665.318.327.696.675.774 1.137 1.298-.152 2.522-2.196 3.232-2.939.711-.742 1.563-1.277 2.044-2.107.068-.723.008-2.217-1.28-2.278-.52-.633-.974-1.333-2.947-1.333" fill="#42474c"/><path d="M45.302 96.605c-.297 1.184.735 1.582.735 1.582l.329-1.582s-.744-1.274-1.064 0M47.421 103.756s1.039-.149 1.763.644c.657.718 3.249 3.81 3.728 4.38.029.732-.56 1.823-1.065 2.479-1.455-.152-3.313-2.407-4.064-3.495-.895-1.3-2.37-2.369-.362-4.008" fill="#fbc7c9"/><path d="M48.542 109.67c-1.09-1.338-2.303-2.687-2.677-4.314-.442-1.931.24-2.605.24-2.605 1.137-.824 2.593-.648 3.893 1.37.44.681 1.014 1.557 1.547 2.428-.384 1.452-1.631 2.573-3.003 3.121" fill="#ffac29"/><path d="M39.016 103.838c.521-1.425 2.515-2.59 2.582-4.092a1.071 1.071 0 00-.107-.465 8.9 8.9 0 001.64.541c-.521.637-.43 3.789-1.533 6.06-1.226 2.524-.512 2.986-.512 2.986s-3.496-1.129-2.07-5.03" fill="#42474c"/><path d="M41.276 98.663s-.033 1.149.147 1.342c.244.261 1.154.555 1.486.425.286-.11.707-.69.744-.976-1.175-.096-2.377-.79-2.377-.79" fill="#ffac29"/><path d="M51.847 108.694s2.143-2.238 2.438-2.786c.295-.548.271-.984.348-1.619.077-.634-.465-1.52-.211-1.685.657-.43.71.834.955 1.163.243.329.805.214.805.214s.49-1.416.778-1.805c.642.59.522 1.018.193 1.973-.254.74-.902 1.691-1.307 2.196-.404.506-.867 1.988-1.574 3.152-.708 1.164-.78 1.779-1.794 1.808-1.014.03-1.25-.307-1.284-.88-.034-.573.653-1.73.653-1.73M48.85 100.525l.025-.602s.966-.786 1.447-1.046c.482-.26.766-.205.606.295-.124.39-.582.596-.835.702-.254.106-.594 1.367-.935 1.304-.34-.064-.307-.653-.307-.653" fill="#fbc7c9"/></svg>