<svg xmlns="http://www.w3.org/2000/svg" width="262.5" height="262.5" viewBox="0 0 69.453 69.453"><g transform="matrix(.74576 0 0 .74576 11.084 -105.619)" stroke-width="1.341"><rect width="69.453" height="69.453" x="-3.024" y="153.464" rx=".053" ry=".048" fill="none" paint-order="fill markers stroke"/><g stroke-width=".459" paint-order="markers stroke fill"><path d="M32.728 174.603l2.819 4.589v2.877h1.531v-2.877l2.82-4.589h-1.67l-1.733 2.823-.183.313-.18-.313-1.736-2.823zm-8.74.072v7.394h1.532v-3.694l1.317 1.317 1.082 1.084 1.084-1.084 1.317-1.317v3.694h1.532v-7.394l-1.532 1.533-2.4 2.4-2.4-2.4z" fill="#fb8b24"/><path d="M27.317 183.447a6.576 6.576 0 0 0-3.283 12.27 6.573 6.573 0 0 0 7.69-.821 6.564 6.564 0 0 0 4.407 1.701 6.58 6.58 0 0 0 6.348-4.873 6.59 6.59 0 0 0-3.065-7.397 6.567 6.567 0 0 0-7.687.824 6.568 6.568 0 0 0-4.41-1.704zm-10.774.008a6.547 6.547 0 0 0-4.645 1.921c-2.558 2.56-2.558 6.736 0 9.296 2.558 2.56 6.731 2.56 9.29 0a.92.92 0 1 0-1.3-1.3 4.715 4.715 0 0 1-6.69 0 4.723 4.723 0 0 1 0-6.694 4.715 4.715 0 0 1 6.69 0 .92.92 0 1 0 1.3-1.302 6.544 6.544 0 0 0-4.645-1.92zm30.032.003a6.553 6.553 0 0 0-4.359 1.916.92.92 0 0 0 1.3 1.304 4.716 4.716 0 0 1 6.384-.281 4.723 4.723 0 0 1 .835 6.34 4.716 4.716 0 0 1-5.856 1.584v-1.135a.945.946 0 0 0-.961-.956.945.946 0 0 0-.93.956v7.645a.945.946 0 1 0 1.89 0v-4.548a6.55 6.55 0 0 0 7.361-2.49c1.95-2.786 1.449-6.622-1.154-8.808a6.55 6.55 0 0 0-4.51-1.527zm-10.303 1.832a4.719 4.719 0 0 1 2.222.634 4.727 4.727 0 0 1 2.205 5.323 4.72 4.72 0 0 1-4.568 3.506 4.723 4.723 0 0 1-4.571-3.506.92.92 0 1 0-1.776.477c.169.63.43 1.214.76 1.749a4.712 4.712 0 0 1-5.59.65 4.726 4.726 0 0 1-2.204-5.325 4.72 4.72 0 0 1 4.567-3.507 4.724 4.724 0 0 1 4.57 3.507.92.92 0 1 0 1.777-.476 6.54 6.54 0 0 0-.758-1.746 4.717 4.717 0 0 1 3.366-1.286z" style="line-height:normal;font-variant-ligatures:normal;font-variant-position:normal;font-variant-caps:normal;font-variant-numeric:normal;font-variant-alternates:normal;font-feature-settings:normal;text-indent:0;text-align:start;text-decoration-line:none;text-decoration-style:solid;text-decoration-color:#000;text-transform:none;text-orientation:mixed;white-space:normal;shape-padding:0;isolation:auto;mix-blend-mode:normal;solid-color:#000;solid-opacity:1" overflow="visible" font-weight="400" color="#000" font-family="sans-serif" fill="#c34683"/></g><rect ry="29.769" rx="29.769" y="158.421" x="1.934" height="59.537" width="59.537" fill="none" stroke="#c34683" stroke-width="2.011" paint-order="fill markers stroke"/></g></svg>