<svg xmlns="http://www.w3.org/2000/svg" xmlns:xlink="http://www.w3.org/1999/xlink" width="262.5" height="262.5" viewBox="0 0 69.453 69.453"><defs><filter height="1.161" y="-.081" width="1.028" x="-.014" id="c" color-interpolation-filters="sRGB"><feGaussianBlur stdDeviation="1.314"/></filter><linearGradient xlink:href="#a" id="d" gradientUnits="userSpaceOnUse" x1="914.563" y1="-1835.134" x2="1174.542" y2="-1821.298"/><linearGradient id="a"><stop offset="0" stop-color="#f57736"/><stop offset="1" stop-color="#ffcc29"/></linearGradient><linearGradient xlink:href="#b" id="e" gradientUnits="userSpaceOnUse" x1="282.309" y1="-223.702" x2="310.912" y2="-274.71"/><linearGradient id="b"><stop offset="0" stop-color="#cc4b09"/><stop offset="1" stop-color="#fbc7ad"/></linearGradient></defs><g transform="translate(3.024 -153.464)"><rect width="69.453" height="69.453" x="-3.024" y="153.464" rx=".053" ry=".048" fill="none" paint-order="fill markers stroke"/><g transform="matrix(1.35314 0 0 1.3553 -1928.5 -225.653)" stroke-width=".273"><text transform="translate(1480.904 417.449) scale(.22373)" y="-458.465" x="-258.235" style="line-height:1.25;-inkscape-font-specification:Nasalization;text-align:justify" font-size="43.441" font-family="Nasalization" stroke-width=".409" stroke-linejoin="round" filter="url(#c)" font-weight="400" opacity=".095" stroke-linecap="round"><tspan style="-inkscape-font-specification:Nasalization" y="-458.465" x="-258.235"><tspan>SAKTI.</tspan> Pay</tspan></text><g transform="rotate(-30 1426.717 -2454.394) scale(.22929)" stroke-width=".266"><path transform="translate(-23.738 212.154) scale(.26458)" d="M1017.463-1870.635c-9.24 0-16.68 7.44-16.68 16.68 0 8.58 6.416 15.596 14.73 16.557v.123h30.671c9.241 0 16.68 7.439 16.68 16.68 0 9.24-7.439 16.68-16.68 16.68h-62.851c-9.24 0-16.68 7.44-16.68 16.68 0 9.241 7.44 16.68 16.68 16.68h39.485c9.241 0 16.68 7.44 16.68 16.68a16.643 16.643 0 0 1-16.64 16.68h-7.864c-9.24 0-16.68 7.439-16.68 16.68 0 9.24 7.44 16.68 16.68 16.68h27.809c9.24 0 16.68 7.438 16.68 16.679 0 9.24-7.44 16.68-16.68 16.68h-29.19c-9.24 0-16.68 7.438-16.68 16.68 0 9.24 7.44 16.679 16.68 16.679h76.162c.263 0 .518-.027.778-.04h131.822c64.674 0 116.74-52.065 116.74-116.74 0-64.673-52.066-116.74-116.74-116.74h-149.156z" fill="url(#d)" paint-order="stroke markers fill"/><path d="M235.915-282.253a4.41 4.41 0 0 0-2.108-.531h-1.665a4.403 4.403 0 0 0-4.413 4.413 4.404 4.404 0 0 0 4.413 4.413h1.666a4.403 4.403 0 0 0 4.413-4.413c0-1.681-.93-3.137-2.306-3.882zm-1.415 35.306a4.407 4.407 0 0 0-2.106-.531h-5.663a4.404 4.404 0 0 0-4.413 4.413 4.403 4.403 0 0 0 4.413 4.413h5.662a4.404 4.404 0 0 0 4.414-4.413c0-1.68-.93-3.137-2.307-3.882zm1.895 17.653a4.409 4.409 0 0 0-2.107-.531h-.838a4.403 4.403 0 0 0-4.413 4.413A4.404 4.404 0 0 0 233.45-221h.838a4.403 4.403 0 0 0 4.413-4.413c0-1.681-.93-3.136-2.306-3.882z" fill="#f78934" paint-order="stroke markers fill"/><rect width="57.595" height="57.595" x="269.373" y="-280.694" rx="28.798" ry="28.798" opacity=".291" fill="#293762" paint-order="stroke markers fill"/><rect ry="26.921" rx="26.921" y="-278.818" x="271.249" height="53.842" width="53.842" fill="#f57736" paint-order="stroke markers fill"/><path d="M298.17-278.818c-3.52 0-6.877.67-9.953 1.888a32.73 32.73 0 0 1 11.547 25.033 32.731 32.731 0 0 1-11.547 25.034 26.98 26.98 0 0 0 9.954 1.887 26.862 26.862 0 0 0 26.92-26.921 26.862 26.862 0 0 0-26.92-26.92z" fill="#f68043" paint-order="stroke markers fill"/><path d="M299.117-278.8a32.743 32.743 0 0 1 13.966 26.903 32.743 32.743 0 0 1-13.966 26.903c14.472-.495 25.974-12.306 25.974-26.903s-11.502-26.407-25.974-26.903z" fill="#f78c55" paint-order="stroke markers fill"/><text y="-353.137" x="117.55" style="line-height:1.25;-inkscape-font-specification:Nasalization;text-align:justify" transform="rotate(30)" fill="#fff" font-size="41.771" font-family="Nasalization" stroke-width=".4" stroke-linejoin="round" font-weight="400" stroke-linecap="round"><tspan style="-inkscape-font-specification:Nasalization" y="-353.137" x="117.55">S</tspan></text><path d="M298.17-279.078c-15.052 0-27.182 12.13-27.182 27.182 0 15.052 12.13 27.181 27.182 27.181 15.052 0 27.182-12.13 27.182-27.181 0-15.053-12.13-27.182-27.182-27.182zm0 .73a26.386 26.386 0 0 1 26.451 26.452 26.384 26.384 0 0 1-26.451 26.449 26.383 26.383 0 0 1-26.45-26.45 26.384 26.384 0 0 1 26.45-26.45z" style="line-height:normal;font-variant-ligatures:normal;font-variant-position:normal;font-variant-caps:normal;font-variant-numeric:normal;font-variant-alternates:normal;font-feature-settings:normal;text-indent:0;text-align:start;text-decoration-line:none;text-decoration-style:solid;text-decoration-color:#000;text-transform:none;text-orientation:mixed;white-space:normal;shape-padding:0;isolation:auto;mix-blend-mode:normal;solid-color:#000;solid-opacity:1" fill="url(#e)" font-family="sans-serif" enable-background="accumulate" paint-order="stroke markers fill" overflow="visible" color="#000" font-weight="400"/></g><g aria-label="SAKTI.Pay" style="line-height:1.25;-inkscape-font-specification:Nasalization;text-align:justify" font-weight="400" font-size="43.441" font-family="Nasalization" fill="#00334e" stroke-width=".409" stroke-linecap="round" stroke-linejoin="round"><path d="M1428.99 308.316v1.147h-3.363q-.447 0-.651.224-.204.213-.204.554 0 .145.038.291.05.136.156.253.117.107.301.175.185.058.477.058h1.535q.67 0 1.098.175.428.165.671.437.253.273.34.622.097.35.097.7 0 .418-.116.768-.117.35-.37.612-.252.253-.65.399-.39.146-.953.146h-3.655v-1.147h3.694q.466 0 .68-.224.224-.233.224-.593 0-.155-.05-.3-.048-.156-.164-.263-.117-.117-.321-.185-.194-.068-.496-.068h-1.526q-.66 0-1.078-.165-.418-.165-.661-.438-.234-.272-.33-.612-.088-.34-.088-.68 0-.408.107-.749.116-.35.36-.602.252-.253.64-.389.39-.146.934-.146zm2.42 6.561h-1.264l2.304-5.832q.184-.466.515-.651.34-.194.865-.194.515 0 .845.194.34.185.515.651l2.216 5.832h-1.273l-1.992-5.278q-.088-.223-.32-.223-.234 0-.331.223zm8.115-6.561v2.78h.632q.418 0 .68-.02.272-.029.447-.116.175-.088.292-.243.126-.165.262-.437l1.001-1.964h1.235l-1.03 2.041q-.224.438-.477.73-.253.29-.66.466.233.058.407.165.175.097.321.253.156.145.292.36.136.203.282.485l1.059 2.06h-1.283l-1-1.943q-.137-.263-.263-.418-.127-.156-.321-.243-.194-.088-.486-.107-.292-.03-.758-.03h-.632v2.742h-1.147v-6.56zm10.205 0v1.147h-1.914v5.414h-1.157v-5.414h-1.915v-1.147zm2.226 0v6.56h-1.147v-6.56zm2.517 5.239v1.322h-1.108v-1.322z"/><path d="M1459.236 308.316q.554 0 .952.165.399.156.651.428.263.263.38.622.126.36.126.749 0 .369-.117.738-.107.37-.36.661-.252.292-.66.476-.399.185-.972.185h-2.041q-.166 0-.166.165v2.372h-1.146v-2.595q0-.554.243-.797t.787-.243h2.362q.243 0 .417-.078.175-.078.282-.204.107-.126.156-.282.058-.165.058-.34 0-.36-.223-.612-.214-.263-.68-.263h-3.412v-1.147zm6.094 1.429q.476 0 .816.126.34.127.554.36.223.223.32.534.098.311.098.671v2.41q0 .282-.049.477-.039.194-.155.32-.117.117-.33.175-.205.059-.526.059h-2.4q-.914 0-1.322-.418-.399-.418-.399-1.147 0-.35.088-.622.097-.272.301-.457.204-.194.535-.292.33-.106.806-.106h2.44v-.39q0-.3-.185-.505-.175-.204-.602-.204h-3.072v-.991zm.495 4.13q.282 0 .282-.262v-.962h-2.42q-.408 0-.574.165-.165.156-.165.438 0 .281.165.456.166.166.554.166zm7.824-4.13l-3.09 7.192h-1.109l.962-2.245q-.437 0-.641-.146-.194-.146-.32-.486l-1.721-4.315h1.088l1.546 3.82q.048.136.107.174.058.04.204.04h.136l1.74-4.034z" style="-inkscape-font-specification:Nasalization"/></g><rect transform="rotate(-30)" width="12.827" height="12.827" x="1097.988" y="978.003" rx="6.414" ry="6.414" fill="#ce8531" paint-order="stroke markers fill"/><path d="M1448.634 293.91a6.403 6.403 0 0 0-3.193.864 6.399 6.399 0 0 0-3.212 5.554h12.838a6.4 6.4 0 0 0-.864-3.206 6.398 6.398 0 0 0-5.569-3.213z" fill="#fbd985" stroke-width=".005" stroke-linecap="round" stroke-linejoin="round" paint-order="stroke markers fill" stroke="#fff"/><rect ry="6.004" rx="6.004" y="978.412" x="1098.398" height="12.008" width="12.008" transform="rotate(-30)" fill="#fdc73f" paint-order="stroke markers fill"/><path d="M1445.95 296.4a4.754 4.754 0 0 1 6.625 1.23 4.754 4.754 0 0 1-1.229 6.624 4.754 4.754 0 0 1-6.625-1.229 4.754 4.754 0 0 1 1.23-6.625z" fill="#fdc73f" paint-order="stroke markers fill"/><rect ry="4.349" rx="4.349" y="980.066" x="1100.053" height="8.699" width="8.699" transform="rotate(-30)" fill="#ce8531" paint-order="stroke markers fill"/><path d="M1448.639 295.974a4.342 4.342 0 0 0-2.165.586 4.34 4.34 0 0 0-2.179 3.767h8.706a4.35 4.35 0 0 0-.586-2.175 4.34 4.34 0 0 0-3.776-2.178z" fill="#fbd985" stroke-width=".003" stroke-linecap="round" stroke-linejoin="round" paint-order="stroke markers fill" stroke="#fff"/><rect transform="rotate(150)" width="8.143" height="8.143" x="-1108.473" y="-988.489" rx="4.072" ry="4.072" fill="#fdc73f" paint-order="stroke markers fill"/><text style="line-height:1.25;-inkscape-font-specification:Nasalization;text-align:justify" x="1446.381" y="302.499" fill="#cd8431" font-size="6.432" font-family="Nasalization" stroke-width=".062" stroke-linejoin="round" font-weight="400" stroke-linecap="round"><tspan x="1446.381" y="302.499" style="-inkscape-font-specification:Nasalization">S</tspan></text><path style="line-height:1.25;-inkscape-font-specification:Nasalization;text-align:justify" d="M1450.26 298.236v.68h-2.226c-.197 0-.34.05-.431.148a.51.51 0 0 0-.135.367.8.8 0 0 0 .026.193.49.49 0 0 0 .103.167.602.602 0 0 0 .2.116s.01 0 .01.002a.555.555 0 0 1-.05-.039.488.488 0 0 1-.103-.167.753.753 0 0 1-.026-.193c0-.15.045-.272.135-.367.09-.098.234-.148.431-.148h2.226v-.759zm-.198 1.924a.99.99 0 0 1 .461.602 1.719 1.719 0 0 1-.013.971c-.05.155-.133.29-.244.406-.112.111-.255.2-.431.263a1.805 1.805 0 0 1-.63.097h-2.26v.079h2.418c.249 0 .459-.032.63-.096.176-.065.32-.153.431-.264a1.06 1.06 0 0 0 .245-.405 1.719 1.719 0 0 0 .013-.971.931.931 0 0 0-.226-.412 1.094 1.094 0 0 0-.394-.27zm-2.677.374c.06.035.125.067.196.095.185.073.423.11.714.11h1.01c.133 0 .242.014.328.044v.002a.605.605 0 0 0-.163-.08 1.01 1.01 0 0 0-.328-.045h-1.01c-.291 0-.53-.037-.714-.11a.748.748 0 0 1-.038-.016z" fill="#af712a" font-size="43.017" font-family="Nasalization" font-weight="400"/><path style="line-height:1.25;-inkscape-font-specification:Nasalization;text-align:justify" d="M1447.948 298.078c-.24 0-.446.032-.618.096-.171.06-.312.146-.424.258a1.042 1.042 0 0 0-.238.398 1.783 1.783 0 0 0-.013.946c.043.15.116.285.219.405.06.068.134.128.219.18a.946.946 0 0 1-.108-.1 1.066 1.066 0 0 1-.218-.406 1.783 1.783 0 0 1 .013-.945 1.05 1.05 0 0 1 .238-.4 1.12 1.12 0 0 1 .424-.256 1.75 1.75 0 0 1 .618-.097h2.088v-.079zm-.355 1.708v.005a.602.602 0 0 0 .199.116c.08.026.186.038.315.038h1.016c.296 0 .539.039.727.116.085.033.16.07.229.113a1.245 1.245 0 0 0-.34-.192c-.19-.077-.431-.116-.727-.116h-1.017a1.1 1.1 0 0 1-.315-.038.792.792 0 0 1-.092-.042zm1.982.961a.383.383 0 0 1 .11.174c.02.064.032.13.032.2 0 .158-.05.289-.148.392-.094.098-.245.148-.45.148h-2.445v.759h.112v-.68h2.444c.206 0 .356-.05.45-.148a.543.543 0 0 0 .148-.392.64.64 0 0 0-.032-.2.442.442 0 0 0-.222-.253z" fill="#fbd985" font-size="43.017" font-family="Nasalization" font-weight="400"/><path d="M1450.03 294.06l-7.649 7.648c.113.508.29 1.01.533 1.493l8.611-8.61a6.414 6.414 0 0 0-1.496-.532zm2.816 1.414l-9.05 9.05a6.388 6.388 0 0 0 3.473 2.074l7.647-7.647a6.447 6.447 0 0 0-.713-1.83 6.45 6.45 0 0 0-1.357-1.647z" opacity=".156" fill="#fff" stroke="#fff" stroke-width=".005" stroke-linecap="round" stroke-linejoin="round" paint-order="stroke markers fill"/><path d="M1443.765 300.447l.064.349-.328-.136-.312.17.028-.355-.258-.244.346-.083.153-.32.185.302.352.047zm10.342 0l.064.349-.328-.136-.312.17.028-.355-.258-.244.346-.083.153-.32.185.302.352.047z" fill="#ce8531" paint-order="stroke markers fill"/><path d="M1452.415 297.027s.075.767.217.909c.141.141.908.216.908.216s-.767.075-.908.217c-.142.142-.217.908-.217.908s-.075-.766-.217-.908c-.141-.142-.908-.217-.908-.217s.767-.074.908-.216c.142-.142.217-.909.217-.909zm1.066-3.219s.06.61.172.723c.113.112.723.172.723.172s-.61.06-.723.172c-.112.113-.172.723-.172.723s-.06-.61-.172-.723c-.113-.112-.723-.172-.723-.172s.61-.06.723-.172c.113-.113.172-.723.172-.723zm1.049 1.44s.036.377.106.447.446.106.446.106-.377.037-.446.107c-.07.07-.107.446-.107.446s-.037-.376-.106-.446c-.07-.07-.447-.107-.447-.107s.377-.036.447-.106.106-.447.106-.447z" fill="#fff" paint-order="stroke markers fill"/></g></g></svg>