<svg xmlns="http://www.w3.org/2000/svg" xmlns:xlink="http://www.w3.org/1999/xlink" width="262.5" height="262.5" viewBox="0 0 69.453 69.453"><defs><linearGradient xlink:href="#a" id="b" gradientUnits="userSpaceOnUse" x1="-1167.863" y1="1099.728" x2="-1246.401" y2="1235.759"/><linearGradient id="a"><stop offset="0" stop-color="#ea2144"/><stop offset="1" stop-color="#ffcc29"/></linearGradient></defs><g transform="translate(3.024 -153.464)"><rect width="69.453" height="69.453" x="-3.024" y="153.464" rx=".053" ry=".048" fill="none" paint-order="fill markers stroke"/><g stroke-width=".194"><g style="line-height:1.25;-inkscape-font-specification:Nasalization;font-variant-ligatures:normal;font-variant-caps:normal;font-variant-numeric:normal;font-feature-settings:normal;text-align:start"><path d="M59.734 201.455v9.379h1.27v-2.723h.587c.28 0 .507.012.683.036.184.017.335.052.455.11a.78.78 0 0 1 .324.235c.088.1.177.238.273.411l1.055 1.93h1.426l-1.138-2.055a4.185 4.185 0 0 0-.564-.817 1.547 1.547 0 0 0-.73-.447 1.94 1.94 0 0 0 .634-.445c.168-.19.333-.43.493-.72l1.1-2.055h-1.375l-1.055 1.97a2.896 2.896 0 0 1-.263.408.763.763 0 0 1-.289.222 1.37 1.37 0 0 1-.42.1c-.16.007-.362.013-.61.013h-.586v-5.552zm-48.346.05c-.472 0-.862.09-1.168.272-.298.172-.532.476-.698.91l-3.112 8.147h1.708l2.81-7.375c.087-.208.235-.311.445-.311.21 0 .356.103.435.311l2.691 7.375h1.72l-2.992-8.147c-.157-.434-.392-.738-.698-.91-.298-.181-.677-.272-1.14-.272zm-11.03.162c-.49 0-.912.068-1.262.204a2.24 2.24 0 0 0-.865.544 2.21 2.21 0 0 0-.486.843 3.568 3.568 0 0 0-.147 1.043c0 .317.04.636.12.953.087.317.237.602.447.855.219.254.516.456.893.61.376.154.861.233 1.457.233h2.061c.271 0 .495.03.67.094.184.063.328.15.433.259.105.1.179.221.222.366.044.136.066.276.066.421 0 .335-.1.61-.3.827-.193.208-.499.314-.919.314h-4.99v1.6h4.937c.508 0 .937-.065 1.287-.2.36-.136.65-.322.878-.558.228-.244.396-.53.5-.855.106-.326.158-.684.158-1.073 0-.326-.044-.652-.132-.978a1.987 1.987 0 0 0-.46-.871c-.22-.254-.52-.456-.906-.61-.385-.163-.878-.246-1.482-.246H.461c-.262 0-.476-.027-.642-.081a1.208 1.208 0 0 1-.407-.243 1.043 1.043 0 0 1-.21-.353 1.629 1.629 0 0 1-.053-.409c0-.316.092-.575.275-.774.184-.208.478-.311.88-.311h4.543v-1.604zm17.174 0v9.17h1.55v-3.833h.853c.42 0 .762.015 1.024.042.263.018.483.067.658.149.175.081.319.195.432.34.114.145.232.339.355.583l1.353 2.718h1.732l-1.429-2.88a7.264 7.264 0 0 0-.382-.68 2.572 2.572 0 0 0-.394-.502 1.781 1.781 0 0 0-.433-.354 1.926 1.926 0 0 0-.551-.23 2.42 2.42 0 0 0 .893-.651 5.12 5.12 0 0 0 .642-1.02l1.394-2.852h-1.67l-1.35 2.744a3.858 3.858 0 0 1-.357.61 1.106 1.106 0 0 1-.392.34c-.157.082-.36.138-.604.165-.237.018-.545.026-.921.026h-.852v-3.885zm8.602 0v1.604h2.588v7.563h1.56v-7.563h2.588v-1.604zm8.196 0v9.167h1.547v-9.167zm13.843.16v1.525h1.282v-1.525zm-7.462.646v5.475c0 .422.05.81.154 1.164.112.347.29.65.529.906.24.256.545.458.92.607.384.14.844.209 1.38.209h3.222v-1.46h-3.14a2.48 2.48 0 0 1-.801-.112 1.38 1.38 0 0 1-.503-.299 1.164 1.164 0 0 1-.276-.457 2.23 2.23 0 0 1-.071-.57v-5.463zm7.462 1.82v6.54h1.27v-6.54zm3.978 0c-.32 0-.547.074-.683.223-.135.14-.204.404-.204.793v5.525h1.27v-5.091c0-.124.052-.186.156-.186h2.072c.67 0 1.153.136 1.449.408.303.273.455.67.455 1.19v3.679h1.283v-3.678c0-.909-.265-1.61-.792-2.106-.52-.504-1.317-.756-2.395-.756zm-14.369 4.694v1.847h1.497v-1.847z" style="-inkscape-font-specification:Nasalization" fill="#ed3940" aria-label="SAKTI.Link" font-size="18.069" font-family="Nasalization" paint-order="fill markers stroke" font-weight="400"/></g><path transform="matrix(.19228 0 0 .19887 257.224 -45.253)" d="M-1172.93 1067.508l-54.943 45.78 25.959 21.628-25.865 21.553 54.941 45.781 54.944-45.781-25.96-21.63 25.868-21.552z" fill="#fafafa" stroke="#fff" stroke-width="6.422" stroke-linecap="round" stroke-linejoin="round" paint-order="stroke markers fill"/><path transform="matrix(.19228 0 0 .19887 257.224 -45.253)" d="M-1173.06 1059.957a9.059 7.548 0 0 0-.262.016 9.059 7.548 0 0 0-.524.027 9.059 7.548 0 0 0-.38.043 9.059 7.548 0 0 0-.538.076 9.059 7.548 0 0 0-.308.061 9.059 7.548 0 0 0-.565.127 9.059 7.548 0 0 0-.324.096 9.059 7.548 0 0 0-.516.164 9.059 7.548 0 0 0-.32.123 9.059 7.548 0 0 0-.5.209 9.059 7.548 0 0 0-.293.147 9.059 7.548 0 0 0-.475.25 9.059 7.548 0 0 0-.269.164 9.059 7.548 0 0 0-.453.297 9.059 7.548 0 0 0-.422.318 9.059 7.548 0 0 0-.123.094l-27.47 22.89-27.473 22.891a9.059 7.548 0 0 0-.112.102 9.059 7.548 0 0 0-.383.351 9.059 7.548 0 0 0-.355.379 9.059 7.548 0 0 0-.197.223 9.059 7.548 0 0 0-.3.392 9.059 7.548 0 0 0-.177.25 9.059 7.548 0 0 0-.25.412 9.059 7.548 0 0 0-.15.27 9.059 7.548 0 0 0-.192.422 9.059 7.548 0 0 0-.119.283 9.059 7.548 0 0 0-.148.455 9.059 7.548 0 0 0-.078.27 9.059 7.548 0 0 0-.09.445 9.059 7.548 0 0 0-.051.318 9.059 7.548 0 0 0-.033.426 9.059 7.548 0 0 0-.017.229 9.059 7.548 0 0 0 .01.1 9.059 7.548 0 0 0 .018.416 9.059 7.548 0 0 0 .025.33 9.059 7.548 0 0 0 .07.426 9.059 7.548 0 0 0 .064.322 9.059 7.548 0 0 0 .12.42 9.059 7.548 0 0 0 .1.306 9.059 7.548 0 0 0 .177.422 9.059 7.548 0 0 0 .13.283 9.059 7.548 0 0 0 .233.418 9.059 7.548 0 0 0 .156.258 9.059 7.548 0 0 0 .285.403 9.059 7.548 0 0 0 .186.244 9.059 7.548 0 0 0 .324.367 9.059 7.548 0 0 0 .223.234 9.059 7.548 0 0 0 .537.498l27.47 22.889 27.471 22.89a9.06 7.549 0 0 0 .541.405 9.059 7.548 0 0 0 .237.164 9.06 7.549 0 0 0 .505.31 9.059 7.548 0 0 0 .215.12 9.06 7.549 0 0 0 .559.277 9.059 7.548 0 0 0 .223.1 9.06 7.549 0 0 0 .617.238 9.059 7.548 0 0 0 .187.064 9.06 7.549 0 0 0 .676.198 9.059 7.548 0 0 0 .172.043 9.06 7.549 0 0 0 .725.144 9.059 7.548 0 0 0 .144.023 9.06 7.549 0 0 0 .752.086 9.059 7.548 0 0 0 .145.01 9.06 7.549 0 0 0 .783.024 9.059 7.548 0 0 0 .103 0 9.06 7.549 0 0 0 .791-.04 9.059 7.548 0 0 0 .121-.013 9.06 7.549 0 0 0 .79-.11 9.059 7.548 0 0 0 .087-.015 9.06 7.549 0 0 0 .819-.186 9.059 7.548 0 0 0 .033-.01 9.06 7.549 0 0 0 .824-.262 9.059 7.548 0 0 0 .014-.01 9.06 7.549 0 0 0 .787-.328 9.059 7.548 0 0 0 .03-.016 9.06 7.549 0 0 0 .722-.38 9.059 7.548 0 0 0 .05-.028 9.06 7.549 0 0 0 .665-.435 9.059 7.548 0 0 0 .055-.037 9.06 7.549 0 0 0 .44-.344 9.06 7.549 0 0 0 .02-.014l11.679-9.732a9.059 7.548 0 1 0-12.809-10.672l-5.29 4.408-42.137-35.105 42.134-35.108 42.131 35.11-5.29 4.408a9.059 7.548 0 1 0 12.808 10.672l11.68-9.73a9.06 7.549 0 0 0 .017-.017 9.06 7.549 0 0 0 .413-.367 9.059 7.548 0 0 0 .043-.043 9.06 7.549 0 0 0 .523-.557 9.059 7.548 0 0 0 .033-.039 9.06 7.549 0 0 0 .457-.601 9.059 7.548 0 0 0 .017-.027 9.06 7.549 0 0 0 .393-.649 9.059 7.548 0 0 0 .012-.025 9.06 7.549 0 0 0 .31-.681 9.06 7.549 0 0 0 .01-.01 9.059 7.548 0 0 0 0-.012 9.06 7.549 0 0 0 .227-.694 9.059 7.548 0 0 0 .014-.053 9.06 7.549 0 0 0 .135-.677 9.059 7.548 0 0 0 .012-.086 9.06 7.549 0 0 0 .05-.666 9.059 7.548 0 0 0 0-.086 9.06 7.549 0 0 0-.026-.655 9.059 7.548 0 0 0-.012-.119 9.06 7.549 0 0 0-.104-.627 9.059 7.548 0 0 0-.027-.119 9.06 7.549 0 0 0-.174-.605 9.059 7.548 0 0 0-.053-.147 9.06 7.549 0 0 0-.228-.547 9.059 7.548 0 0 0-.092-.185 9.06 7.549 0 0 0-.278-.496 9.059 7.548 0 0 0-.123-.192 9.06 7.549 0 0 0-.32-.449 9.059 7.548 0 0 0-.17-.209 9.06 7.549 0 0 0-.344-.39 9.059 7.548 0 0 0-.224-.225 9.06 7.549 0 0 0-.47-.436l-27.474-22.888-27.468-22.891a9.059 7.548 0 0 0-.6-.45 9.059 7.548 0 0 0-.262-.171 9.059 7.548 0 0 0-.468-.287 9.059 7.548 0 0 0-.268-.14 9.059 7.548 0 0 0-.496-.247 9.059 7.548 0 0 0-.31-.13 9.059 7.548 0 0 0-.507-.194 9.059 7.548 0 0 0-.328-.106 9.059 7.548 0 0 0-.515-.15 9.059 7.548 0 0 0-.358-.08 9.059 7.548 0 0 0-.523-.105 9.059 7.548 0 0 0-.363-.05 9.059 7.548 0 0 0-.528-.06 9.059 7.548 0 0 0-.373-.02 9.059 7.548 0 0 0-.53-.015 9.059 7.548 0 0 0-.11 0zm.024 43.154a9.059 7.548 0 0 0-6.962 2.871l-10.946 9.12a9.059 7.548 0 1 0 12.809 10.675l5.295-4.414 42.137 35.108-42.131 35.105-42.137-35.11 5.299-4.41a9.059 7.548 0 1 0-12.813-10.673l-10.945 9.119a9.059 7.548 0 0 0-.941.7 9.059 7.548 0 0 0-.467 9.993 9.059 7.548 0 0 0 .1.1 9.059 7.548 0 0 0 .555.512l54.94 45.777a9.059 7.548 0 0 0 .583.44 9.059 7.548 0 0 0 .336.219 9.059 7.548 0 0 0 .375.23 9.059 7.548 0 0 0 .369.195 9.059 7.548 0 0 0 .418.207 9.059 7.548 0 0 0 .348.145 9.059 7.548 0 0 0 .464.18 9.059 7.548 0 0 0 .4.127 9.059 7.548 0 0 0 .432.125 9.059 7.548 0 0 0 .452.103 9.059 7.548 0 0 0 .431.086 9.059 7.548 0 0 0 .434.061 9.059 7.548 0 0 0 .467.053 9.059 7.548 0 0 0 .437.023 9.059 7.548 0 0 0 .46.014 9.059 7.548 0 0 0 .45-.014 9.059 7.548 0 0 0 .455-.025 9.059 7.548 0 0 0 .444-.049 9.059 7.548 0 0 0 .449-.062 9.059 7.548 0 0 0 .432-.086 9.059 7.548 0 0 0 .45-.102 9.059 7.548 0 0 0 .419-.122 9.059 7.548 0 0 0 .43-.137 9.059 7.548 0 0 0 .39-.15 9.059 7.548 0 0 0 .428-.178 9.059 7.548 0 0 0 .373-.186 9.059 7.548 0 0 0 .396-.209 9.059 7.548 0 0 0 .366-.225 9.059 7.548 0 0 0 .341-.222 9.059 7.548 0 0 0 .582-.44l54.942-45.777a9.059 7.548 0 0 0 .525-.486 9.059 7.548 0 0 0 .27-.285 9.059 7.548 0 0 0 .27-.305 9.059 7.548 0 0 0 .25-.328 9.059 7.548 0 0 0 .222-.313 9.059 7.548 0 0 0 .213-.355 9.059 7.548 0 0 0 .181-.326 9.059 7.548 0 0 0 .165-.358 9.059 7.548 0 0 0 .146-.35 9.059 7.548 0 0 0 .121-.374 9.059 7.548 0 0 0 .104-.36 9.059 7.548 0 0 0 .074-.375 9.059 7.548 0 0 0 .06-.367 9.059 7.548 0 0 0 .032-.38 9.059 7.548 0 0 0 .016-.376 9.059 7.548 0 0 0-.016-.383 9.059 7.548 0 0 0-.03-.365 9.059 7.548 0 0 0-.061-.389 9.059 7.548 0 0 0-.074-.36 9.059 7.548 0 0 0-.104-.36 9.059 7.548 0 0 0-.123-.375 9.059 7.548 0 0 0-.15-.362 9.059 7.548 0 0 0-.153-.332 9.059 7.548 0 0 0-.215-.386 9.059 7.548 0 0 0-.175-.291 9.059 7.548 0 0 0-.246-.348 9.059 7.548 0 0 0-.235-.309 9.059 7.548 0 0 0-.277-.312 9.059 7.548 0 0 0-.262-.28 9.059 7.548 0 0 0-.527-.486l-54.942-45.777a9.059 7.548 0 0 0-.613-.463 9.059 7.548 0 0 0-.12-.082 9.059 7.548 0 0 0-5.87-1.697z" style="line-height:normal;font-variant-ligatures:normal;font-variant-position:normal;font-variant-caps:normal;font-variant-numeric:normal;font-variant-alternates:normal;font-feature-settings:normal;text-indent:0;text-align:start;text-decoration-line:none;text-decoration-style:solid;text-decoration-color:#000;text-transform:none;text-orientation:mixed;white-space:normal;shape-padding:0;isolation:auto;mix-blend-mode:normal;solid-color:#000;solid-opacity:1" fill="url(#b)" font-family="sans-serif" overflow="visible" color="#000" font-weight="400"/></g></g></svg>