<svg xmlns="http://www.w3.org/2000/svg" width="262.5" height="262.5" viewBox="0 0 69.453 69.453"><g transform="translate(3.024 -153.464)"><rect width="69.453" height="69.453" x="-3.024" y="153.464" rx=".053" ry=".048" fill="none" paint-order="fill markers stroke"/><g transform="matrix(.578 0 0 .5769 -523.701 611.2)" stroke-width=".284"><path d="M936.176-743.756c-2.499 0-4.827.932-6.984 2.797-2.392 2.06-3.588 4.598-3.588 7.614 0 3.036.986 5.565 2.958 7.585 1.953 2.021 4.451 3.032 7.497 3.032h2.812v-2.636h-2.314c-2.997 0-5.174-1.001-6.53-3.002-.938-1.386-1.406-2.987-1.406-4.803 0-2.118.64-3.92 1.918-5.403 1.454-1.699 3.485-2.548 6.091-2.548h2.241v-2.636zm4.788 0v14.16c0 2.118.664 3.836 1.992 5.154 1.298 1.338 2.914 2.006 4.847 2.006 1.923 0 3.553-.639 4.89-1.918 1.445-1.376 2.167-3.197 2.167-5.462v-13.94h-2.826v14.16c0 1.162-.326 2.182-.98 3.06-.762 1.016-1.801 1.523-3.12 1.523-1.18 0-2.132-.342-2.855-1.025-.859-.81-1.289-2.089-1.289-3.836v-13.882z" fill="#e53935" stroke="#e53935" stroke-width=".178" stroke-linecap="round" stroke-linejoin="round"/><path d="M960.2-743.99a2.28 2.28 0 0 0-1.728.747c-.459.497-.688 1.205-.688 2.123v18.392h2.826v-17.396l7.717 15.976c.176.488.513.87 1.01 1.143a3 3 0 0 0 1.626.468c.596 0 1.103-.166 1.523-.498.4-.312.6-.78.6-1.405v-19.315h-2.826v17.03l-7.615-15.624c-.536-1.094-1.352-1.64-2.445-1.64zm-52.79.23c-1.337 0-2.519.43-3.544 1.289-1.162.986-1.742 2.294-1.742 3.924 0 1.24.39 2.324 1.171 3.251.576.674 1.538 1.381 2.885 2.123 1.22.625 2.45 1.235 3.69 1.83.898.44 1.596.928 2.094 1.465.507.547.761 1.147.761 1.8v.177c0 .088-.01.17-.029.249-.127.82-.473 1.4-1.04 1.742-.556.361-1.327.542-2.313.542h-7.41v2.636h7.644c2.119 0 3.695-.63 4.73-1.89.8-.966 1.2-2.137 1.2-3.514 0-1.24-.42-2.387-1.259-3.44-.644-.801-1.474-1.504-2.489-2.11a169.1 169.1 0 0 0-2.738-1.317c-1.22-.576-2.27-1.176-3.149-1.801a2.166 2.166 0 0 1-.732-.806 2.28 2.28 0 0 1-.263-1.054c0-.693.224-1.284.673-1.772.44-.458 1.06-.688 1.86-.688h7.204v-2.636zm69.01 0v21.028h2.797v-18.392h1.947c2.373 0 4.301.761 5.785 2.284 1.386 1.435 2.079 3.256 2.079 5.462 0 1.874-.576 3.612-1.728 5.213-1.318 1.816-2.972 2.724-4.964 2.724h-1.947v2.709h1.698c3.221 0 5.74-1.182 7.556-3.544 1.562-2.02 2.343-4.388 2.343-7.102 0-3.241-1.118-5.852-3.353-7.834-1.943-1.699-4.164-2.548-6.663-2.548zm-55.99 1.8c-.42 0-.79.151-1.113.454-.322.293-.483.65-.483 1.069 0 .527.17.927.512 1.2.323.303.703.454 1.142.454.42 0 .781-.15 1.084-.453.273-.274.41-.65.41-1.128 0-.469-.156-.85-.468-1.142-.323-.303-.684-.454-1.084-.454zm-1.35 4.83v14.394h2.636v-14.394z" fill="#29b6f6" stroke="#29b6f6" stroke-width=".178" stroke-linecap="round" stroke-linejoin="round"/><circle r="1.865" cy="-740.41" cx="1018.1" fill="#e53935" paint-order="stroke markers fill"/><g transform="translate(393.17 -282.84) scale(.59657)" paint-order="stroke markers fill"><circle r="19.099" cy="-755" cx="1024.9" fill="#29b6f6"/><path style="font-variant-ligatures:normal;font-variant-position:normal;font-variant-caps:normal;font-variant-numeric:normal;font-variant-alternates:normal;font-feature-settings:normal;text-indent:0;text-decoration-line:none;text-decoration-style:solid;text-decoration-color:#000;text-transform:none;text-orientation:mixed;white-space:normal;shape-padding:0;isolation:auto;mix-blend-mode:normal;solid-color:#000" d="M1025.9-768.89a13.868 13.868 0 0 0-4.57.439 13.955 13.955 0 0 0-10.328 13.459c0 6.294 4.248 11.83 10.327 13.459a13.954 13.954 0 0 0 15.673-6.492 2.504 2.504 0 1 0-4.337-2.504 8.905 8.905 0 0 1-10.04 4.159 8.905 8.905 0 0 1-6.615-8.622 8.903 8.903 0 0 1 6.615-8.62 8.904 8.904 0 0 1 10.04 4.157 2.504 2.504 0 1 0 4.337-2.504 13.959 13.959 0 0 0-11.102-6.93z" color="#000" fill="#e53935"/><g fill="#fff"><circle r="5.866" cy="-755" cx="1024.9"/><path d="M1019.9-747.58a11.4 11.4 0 0 0-3.995 3.238 13.873 13.873 0 0 0 5.369 2.81 13.959 13.959 0 0 0 12.59-2.814 11.4 11.4 0 0 0-4.008-3.23 8.904 8.904 0 0 1-7.286 1.206 8.95 8.95 0 0 1-2.67-1.21z"/><circle r="1.717" cy="-761.31" cx="1040"/></g></g></g></g></svg>